%TF.GenerationSoftware,KiCad,Pcbnew,9.0.6*%
%TF.CreationDate,2025-11-06T07:23:16-05:00*%
%TF.ProjectId,pic-rylr998-01,7069632d-7279-46c7-9239-39382d30312e,rev?*%
%TF.SameCoordinates,Original*%
%TF.FileFunction,Legend,Top*%
%TF.FilePolarity,Positive*%
%FSLAX46Y46*%
G04 Gerber Fmt 4.6, Leading zero omitted, Abs format (unit mm)*
G04 Created by KiCad (PCBNEW 9.0.6) date 2025-11-06 07:23:16*
%MOMM*%
%LPD*%
G01*
G04 APERTURE LIST*
G04 Aperture macros list*
%AMRoundRect*
0 Rectangle with rounded corners*
0 $1 Rounding radius*
0 $2 $3 $4 $5 $6 $7 $8 $9 X,Y pos of 4 corners*
0 Add a 4 corners polygon primitive as box body*
4,1,4,$2,$3,$4,$5,$6,$7,$8,$9,$2,$3,0*
0 Add four circle primitives for the rounded corners*
1,1,$1+$1,$2,$3*
1,1,$1+$1,$4,$5*
1,1,$1+$1,$6,$7*
1,1,$1+$1,$8,$9*
0 Add four rect primitives between the rounded corners*
20,1,$1+$1,$2,$3,$4,$5,0*
20,1,$1+$1,$4,$5,$6,$7,0*
20,1,$1+$1,$6,$7,$8,$9,0*
20,1,$1+$1,$8,$9,$2,$3,0*%
G04 Aperture macros list end*
%ADD10C,0.150000*%
%ADD11C,0.120000*%
%ADD12R,1.800000X1.800000*%
%ADD13C,1.800000*%
%ADD14C,1.600000*%
%ADD15R,1.905000X2.000000*%
%ADD16O,1.905000X2.000000*%
%ADD17RoundRect,0.250000X-0.550000X-0.550000X0.550000X-0.550000X0.550000X0.550000X-0.550000X0.550000X0*%
%ADD18RoundRect,0.250000X1.050000X1.050000X-1.050000X1.050000X-1.050000X-1.050000X1.050000X-1.050000X0*%
%ADD19C,2.600000*%
%ADD20C,2.000000*%
%ADD21R,1.700000X1.700000*%
%ADD22C,1.700000*%
%ADD23RoundRect,0.250000X0.550000X0.550000X-0.550000X0.550000X-0.550000X-0.550000X0.550000X-0.550000X0*%
G04 APERTURE END LIST*
D10*
X180761905Y-102954819D02*
X180761905Y-101954819D01*
X180761905Y-101954819D02*
X181000000Y-101954819D01*
X181000000Y-101954819D02*
X181142857Y-102002438D01*
X181142857Y-102002438D02*
X181238095Y-102097676D01*
X181238095Y-102097676D02*
X181285714Y-102192914D01*
X181285714Y-102192914D02*
X181333333Y-102383390D01*
X181333333Y-102383390D02*
X181333333Y-102526247D01*
X181333333Y-102526247D02*
X181285714Y-102716723D01*
X181285714Y-102716723D02*
X181238095Y-102811961D01*
X181238095Y-102811961D02*
X181142857Y-102907200D01*
X181142857Y-102907200D02*
X181000000Y-102954819D01*
X181000000Y-102954819D02*
X180761905Y-102954819D01*
X182285714Y-102954819D02*
X181714286Y-102954819D01*
X182000000Y-102954819D02*
X182000000Y-101954819D01*
X182000000Y-101954819D02*
X181904762Y-102097676D01*
X181904762Y-102097676D02*
X181809524Y-102192914D01*
X181809524Y-102192914D02*
X181714286Y-102240533D01*
X174333333Y-91454819D02*
X174000000Y-90978628D01*
X173761905Y-91454819D02*
X173761905Y-90454819D01*
X173761905Y-90454819D02*
X174142857Y-90454819D01*
X174142857Y-90454819D02*
X174238095Y-90502438D01*
X174238095Y-90502438D02*
X174285714Y-90550057D01*
X174285714Y-90550057D02*
X174333333Y-90645295D01*
X174333333Y-90645295D02*
X174333333Y-90788152D01*
X174333333Y-90788152D02*
X174285714Y-90883390D01*
X174285714Y-90883390D02*
X174238095Y-90931009D01*
X174238095Y-90931009D02*
X174142857Y-90978628D01*
X174142857Y-90978628D02*
X173761905Y-90978628D01*
X175238095Y-90454819D02*
X174761905Y-90454819D01*
X174761905Y-90454819D02*
X174714286Y-90931009D01*
X174714286Y-90931009D02*
X174761905Y-90883390D01*
X174761905Y-90883390D02*
X174857143Y-90835771D01*
X174857143Y-90835771D02*
X175095238Y-90835771D01*
X175095238Y-90835771D02*
X175190476Y-90883390D01*
X175190476Y-90883390D02*
X175238095Y-90931009D01*
X175238095Y-90931009D02*
X175285714Y-91026247D01*
X175285714Y-91026247D02*
X175285714Y-91264342D01*
X175285714Y-91264342D02*
X175238095Y-91359580D01*
X175238095Y-91359580D02*
X175190476Y-91407200D01*
X175190476Y-91407200D02*
X175095238Y-91454819D01*
X175095238Y-91454819D02*
X174857143Y-91454819D01*
X174857143Y-91454819D02*
X174761905Y-91407200D01*
X174761905Y-91407200D02*
X174714286Y-91359580D01*
X168738095Y-88454819D02*
X168738095Y-89264342D01*
X168738095Y-89264342D02*
X168785714Y-89359580D01*
X168785714Y-89359580D02*
X168833333Y-89407200D01*
X168833333Y-89407200D02*
X168928571Y-89454819D01*
X168928571Y-89454819D02*
X169119047Y-89454819D01*
X169119047Y-89454819D02*
X169214285Y-89407200D01*
X169214285Y-89407200D02*
X169261904Y-89359580D01*
X169261904Y-89359580D02*
X169309523Y-89264342D01*
X169309523Y-89264342D02*
X169309523Y-88454819D01*
X170309523Y-89454819D02*
X169738095Y-89454819D01*
X170023809Y-89454819D02*
X170023809Y-88454819D01*
X170023809Y-88454819D02*
X169928571Y-88597676D01*
X169928571Y-88597676D02*
X169833333Y-88692914D01*
X169833333Y-88692914D02*
X169738095Y-88740533D01*
X167666666Y-102954819D02*
X167666666Y-103669104D01*
X167666666Y-103669104D02*
X167619047Y-103811961D01*
X167619047Y-103811961D02*
X167523809Y-103907200D01*
X167523809Y-103907200D02*
X167380952Y-103954819D01*
X167380952Y-103954819D02*
X167285714Y-103954819D01*
X168666666Y-103954819D02*
X168095238Y-103954819D01*
X168380952Y-103954819D02*
X168380952Y-102954819D01*
X168380952Y-102954819D02*
X168285714Y-103097676D01*
X168285714Y-103097676D02*
X168190476Y-103192914D01*
X168190476Y-103192914D02*
X168095238Y-103240533D01*
X165333333Y-91454819D02*
X165000000Y-90978628D01*
X164761905Y-91454819D02*
X164761905Y-90454819D01*
X164761905Y-90454819D02*
X165142857Y-90454819D01*
X165142857Y-90454819D02*
X165238095Y-90502438D01*
X165238095Y-90502438D02*
X165285714Y-90550057D01*
X165285714Y-90550057D02*
X165333333Y-90645295D01*
X165333333Y-90645295D02*
X165333333Y-90788152D01*
X165333333Y-90788152D02*
X165285714Y-90883390D01*
X165285714Y-90883390D02*
X165238095Y-90931009D01*
X165238095Y-90931009D02*
X165142857Y-90978628D01*
X165142857Y-90978628D02*
X164761905Y-90978628D01*
X166190476Y-90788152D02*
X166190476Y-91454819D01*
X165952381Y-90407200D02*
X165714286Y-91121485D01*
X165714286Y-91121485D02*
X166333333Y-91121485D01*
X183333333Y-112454819D02*
X183000000Y-111978628D01*
X182761905Y-112454819D02*
X182761905Y-111454819D01*
X182761905Y-111454819D02*
X183142857Y-111454819D01*
X183142857Y-111454819D02*
X183238095Y-111502438D01*
X183238095Y-111502438D02*
X183285714Y-111550057D01*
X183285714Y-111550057D02*
X183333333Y-111645295D01*
X183333333Y-111645295D02*
X183333333Y-111788152D01*
X183333333Y-111788152D02*
X183285714Y-111883390D01*
X183285714Y-111883390D02*
X183238095Y-111931009D01*
X183238095Y-111931009D02*
X183142857Y-111978628D01*
X183142857Y-111978628D02*
X182761905Y-111978628D01*
X183666667Y-111454819D02*
X184285714Y-111454819D01*
X184285714Y-111454819D02*
X183952381Y-111835771D01*
X183952381Y-111835771D02*
X184095238Y-111835771D01*
X184095238Y-111835771D02*
X184190476Y-111883390D01*
X184190476Y-111883390D02*
X184238095Y-111931009D01*
X184238095Y-111931009D02*
X184285714Y-112026247D01*
X184285714Y-112026247D02*
X184285714Y-112264342D01*
X184285714Y-112264342D02*
X184238095Y-112359580D01*
X184238095Y-112359580D02*
X184190476Y-112407200D01*
X184190476Y-112407200D02*
X184095238Y-112454819D01*
X184095238Y-112454819D02*
X183809524Y-112454819D01*
X183809524Y-112454819D02*
X183714286Y-112407200D01*
X183714286Y-112407200D02*
X183666667Y-112359580D01*
X173666666Y-79954819D02*
X173666666Y-80669104D01*
X173666666Y-80669104D02*
X173619047Y-80811961D01*
X173619047Y-80811961D02*
X173523809Y-80907200D01*
X173523809Y-80907200D02*
X173380952Y-80954819D01*
X173380952Y-80954819D02*
X173285714Y-80954819D01*
X174047619Y-79954819D02*
X174666666Y-79954819D01*
X174666666Y-79954819D02*
X174333333Y-80335771D01*
X174333333Y-80335771D02*
X174476190Y-80335771D01*
X174476190Y-80335771D02*
X174571428Y-80383390D01*
X174571428Y-80383390D02*
X174619047Y-80431009D01*
X174619047Y-80431009D02*
X174666666Y-80526247D01*
X174666666Y-80526247D02*
X174666666Y-80764342D01*
X174666666Y-80764342D02*
X174619047Y-80859580D01*
X174619047Y-80859580D02*
X174571428Y-80907200D01*
X174571428Y-80907200D02*
X174476190Y-80954819D01*
X174476190Y-80954819D02*
X174190476Y-80954819D01*
X174190476Y-80954819D02*
X174095238Y-80907200D01*
X174095238Y-80907200D02*
X174047619Y-80859580D01*
X170333333Y-94359580D02*
X170285714Y-94407200D01*
X170285714Y-94407200D02*
X170142857Y-94454819D01*
X170142857Y-94454819D02*
X170047619Y-94454819D01*
X170047619Y-94454819D02*
X169904762Y-94407200D01*
X169904762Y-94407200D02*
X169809524Y-94311961D01*
X169809524Y-94311961D02*
X169761905Y-94216723D01*
X169761905Y-94216723D02*
X169714286Y-94026247D01*
X169714286Y-94026247D02*
X169714286Y-93883390D01*
X169714286Y-93883390D02*
X169761905Y-93692914D01*
X169761905Y-93692914D02*
X169809524Y-93597676D01*
X169809524Y-93597676D02*
X169904762Y-93502438D01*
X169904762Y-93502438D02*
X170047619Y-93454819D01*
X170047619Y-93454819D02*
X170142857Y-93454819D01*
X170142857Y-93454819D02*
X170285714Y-93502438D01*
X170285714Y-93502438D02*
X170333333Y-93550057D01*
X170714286Y-93550057D02*
X170761905Y-93502438D01*
X170761905Y-93502438D02*
X170857143Y-93454819D01*
X170857143Y-93454819D02*
X171095238Y-93454819D01*
X171095238Y-93454819D02*
X171190476Y-93502438D01*
X171190476Y-93502438D02*
X171238095Y-93550057D01*
X171238095Y-93550057D02*
X171285714Y-93645295D01*
X171285714Y-93645295D02*
X171285714Y-93740533D01*
X171285714Y-93740533D02*
X171238095Y-93883390D01*
X171238095Y-93883390D02*
X170666667Y-94454819D01*
X170666667Y-94454819D02*
X171285714Y-94454819D01*
X162166666Y-116954819D02*
X162166666Y-117669104D01*
X162166666Y-117669104D02*
X162119047Y-117811961D01*
X162119047Y-117811961D02*
X162023809Y-117907200D01*
X162023809Y-117907200D02*
X161880952Y-117954819D01*
X161880952Y-117954819D02*
X161785714Y-117954819D01*
X162595238Y-117050057D02*
X162642857Y-117002438D01*
X162642857Y-117002438D02*
X162738095Y-116954819D01*
X162738095Y-116954819D02*
X162976190Y-116954819D01*
X162976190Y-116954819D02*
X163071428Y-117002438D01*
X163071428Y-117002438D02*
X163119047Y-117050057D01*
X163119047Y-117050057D02*
X163166666Y-117145295D01*
X163166666Y-117145295D02*
X163166666Y-117240533D01*
X163166666Y-117240533D02*
X163119047Y-117383390D01*
X163119047Y-117383390D02*
X162547619Y-117954819D01*
X162547619Y-117954819D02*
X163166666Y-117954819D01*
X165833333Y-117454819D02*
X165500000Y-116978628D01*
X165261905Y-117454819D02*
X165261905Y-116454819D01*
X165261905Y-116454819D02*
X165642857Y-116454819D01*
X165642857Y-116454819D02*
X165738095Y-116502438D01*
X165738095Y-116502438D02*
X165785714Y-116550057D01*
X165785714Y-116550057D02*
X165833333Y-116645295D01*
X165833333Y-116645295D02*
X165833333Y-116788152D01*
X165833333Y-116788152D02*
X165785714Y-116883390D01*
X165785714Y-116883390D02*
X165738095Y-116931009D01*
X165738095Y-116931009D02*
X165642857Y-116978628D01*
X165642857Y-116978628D02*
X165261905Y-116978628D01*
X166214286Y-116550057D02*
X166261905Y-116502438D01*
X166261905Y-116502438D02*
X166357143Y-116454819D01*
X166357143Y-116454819D02*
X166595238Y-116454819D01*
X166595238Y-116454819D02*
X166690476Y-116502438D01*
X166690476Y-116502438D02*
X166738095Y-116550057D01*
X166738095Y-116550057D02*
X166785714Y-116645295D01*
X166785714Y-116645295D02*
X166785714Y-116740533D01*
X166785714Y-116740533D02*
X166738095Y-116883390D01*
X166738095Y-116883390D02*
X166166667Y-117454819D01*
X166166667Y-117454819D02*
X166785714Y-117454819D01*
X169833333Y-114454819D02*
X169500000Y-113978628D01*
X169261905Y-114454819D02*
X169261905Y-113454819D01*
X169261905Y-113454819D02*
X169642857Y-113454819D01*
X169642857Y-113454819D02*
X169738095Y-113502438D01*
X169738095Y-113502438D02*
X169785714Y-113550057D01*
X169785714Y-113550057D02*
X169833333Y-113645295D01*
X169833333Y-113645295D02*
X169833333Y-113788152D01*
X169833333Y-113788152D02*
X169785714Y-113883390D01*
X169785714Y-113883390D02*
X169738095Y-113931009D01*
X169738095Y-113931009D02*
X169642857Y-113978628D01*
X169642857Y-113978628D02*
X169261905Y-113978628D01*
X170785714Y-114454819D02*
X170214286Y-114454819D01*
X170500000Y-114454819D02*
X170500000Y-113454819D01*
X170500000Y-113454819D02*
X170404762Y-113597676D01*
X170404762Y-113597676D02*
X170309524Y-113692914D01*
X170309524Y-113692914D02*
X170214286Y-113740533D01*
X164265713Y-80859580D02*
X164218094Y-80907200D01*
X164218094Y-80907200D02*
X164075237Y-80954819D01*
X164075237Y-80954819D02*
X163979999Y-80954819D01*
X163979999Y-80954819D02*
X163837142Y-80907200D01*
X163837142Y-80907200D02*
X163741904Y-80811961D01*
X163741904Y-80811961D02*
X163694285Y-80716723D01*
X163694285Y-80716723D02*
X163646666Y-80526247D01*
X163646666Y-80526247D02*
X163646666Y-80383390D01*
X163646666Y-80383390D02*
X163694285Y-80192914D01*
X163694285Y-80192914D02*
X163741904Y-80097676D01*
X163741904Y-80097676D02*
X163837142Y-80002438D01*
X163837142Y-80002438D02*
X163979999Y-79954819D01*
X163979999Y-79954819D02*
X164075237Y-79954819D01*
X164075237Y-79954819D02*
X164218094Y-80002438D01*
X164218094Y-80002438D02*
X164265713Y-80050057D01*
X165170475Y-79954819D02*
X164694285Y-79954819D01*
X164694285Y-79954819D02*
X164646666Y-80431009D01*
X164646666Y-80431009D02*
X164694285Y-80383390D01*
X164694285Y-80383390D02*
X164789523Y-80335771D01*
X164789523Y-80335771D02*
X165027618Y-80335771D01*
X165027618Y-80335771D02*
X165122856Y-80383390D01*
X165122856Y-80383390D02*
X165170475Y-80431009D01*
X165170475Y-80431009D02*
X165218094Y-80526247D01*
X165218094Y-80526247D02*
X165218094Y-80764342D01*
X165218094Y-80764342D02*
X165170475Y-80859580D01*
X165170475Y-80859580D02*
X165122856Y-80907200D01*
X165122856Y-80907200D02*
X165027618Y-80954819D01*
X165027618Y-80954819D02*
X164789523Y-80954819D01*
X164789523Y-80954819D02*
X164694285Y-80907200D01*
X164694285Y-80907200D02*
X164646666Y-80859580D01*
X184833333Y-77954819D02*
X184500000Y-77478628D01*
X184261905Y-77954819D02*
X184261905Y-76954819D01*
X184261905Y-76954819D02*
X184642857Y-76954819D01*
X184642857Y-76954819D02*
X184738095Y-77002438D01*
X184738095Y-77002438D02*
X184785714Y-77050057D01*
X184785714Y-77050057D02*
X184833333Y-77145295D01*
X184833333Y-77145295D02*
X184833333Y-77288152D01*
X184833333Y-77288152D02*
X184785714Y-77383390D01*
X184785714Y-77383390D02*
X184738095Y-77431009D01*
X184738095Y-77431009D02*
X184642857Y-77478628D01*
X184642857Y-77478628D02*
X184261905Y-77478628D01*
X185690476Y-76954819D02*
X185500000Y-76954819D01*
X185500000Y-76954819D02*
X185404762Y-77002438D01*
X185404762Y-77002438D02*
X185357143Y-77050057D01*
X185357143Y-77050057D02*
X185261905Y-77192914D01*
X185261905Y-77192914D02*
X185214286Y-77383390D01*
X185214286Y-77383390D02*
X185214286Y-77764342D01*
X185214286Y-77764342D02*
X185261905Y-77859580D01*
X185261905Y-77859580D02*
X185309524Y-77907200D01*
X185309524Y-77907200D02*
X185404762Y-77954819D01*
X185404762Y-77954819D02*
X185595238Y-77954819D01*
X185595238Y-77954819D02*
X185690476Y-77907200D01*
X185690476Y-77907200D02*
X185738095Y-77859580D01*
X185738095Y-77859580D02*
X185785714Y-77764342D01*
X185785714Y-77764342D02*
X185785714Y-77526247D01*
X185785714Y-77526247D02*
X185738095Y-77431009D01*
X185738095Y-77431009D02*
X185690476Y-77383390D01*
X185690476Y-77383390D02*
X185595238Y-77335771D01*
X185595238Y-77335771D02*
X185404762Y-77335771D01*
X185404762Y-77335771D02*
X185309524Y-77383390D01*
X185309524Y-77383390D02*
X185261905Y-77431009D01*
X185261905Y-77431009D02*
X185214286Y-77526247D01*
X185333333Y-82859580D02*
X185285714Y-82907200D01*
X185285714Y-82907200D02*
X185142857Y-82954819D01*
X185142857Y-82954819D02*
X185047619Y-82954819D01*
X185047619Y-82954819D02*
X184904762Y-82907200D01*
X184904762Y-82907200D02*
X184809524Y-82811961D01*
X184809524Y-82811961D02*
X184761905Y-82716723D01*
X184761905Y-82716723D02*
X184714286Y-82526247D01*
X184714286Y-82526247D02*
X184714286Y-82383390D01*
X184714286Y-82383390D02*
X184761905Y-82192914D01*
X184761905Y-82192914D02*
X184809524Y-82097676D01*
X184809524Y-82097676D02*
X184904762Y-82002438D01*
X184904762Y-82002438D02*
X185047619Y-81954819D01*
X185047619Y-81954819D02*
X185142857Y-81954819D01*
X185142857Y-81954819D02*
X185285714Y-82002438D01*
X185285714Y-82002438D02*
X185333333Y-82050057D01*
X186190476Y-82288152D02*
X186190476Y-82954819D01*
X185952381Y-81907200D02*
X185714286Y-82621485D01*
X185714286Y-82621485D02*
X186333333Y-82621485D01*
X161333333Y-94359580D02*
X161285714Y-94407200D01*
X161285714Y-94407200D02*
X161142857Y-94454819D01*
X161142857Y-94454819D02*
X161047619Y-94454819D01*
X161047619Y-94454819D02*
X160904762Y-94407200D01*
X160904762Y-94407200D02*
X160809524Y-94311961D01*
X160809524Y-94311961D02*
X160761905Y-94216723D01*
X160761905Y-94216723D02*
X160714286Y-94026247D01*
X160714286Y-94026247D02*
X160714286Y-93883390D01*
X160714286Y-93883390D02*
X160761905Y-93692914D01*
X160761905Y-93692914D02*
X160809524Y-93597676D01*
X160809524Y-93597676D02*
X160904762Y-93502438D01*
X160904762Y-93502438D02*
X161047619Y-93454819D01*
X161047619Y-93454819D02*
X161142857Y-93454819D01*
X161142857Y-93454819D02*
X161285714Y-93502438D01*
X161285714Y-93502438D02*
X161333333Y-93550057D01*
X161666667Y-93454819D02*
X162285714Y-93454819D01*
X162285714Y-93454819D02*
X161952381Y-93835771D01*
X161952381Y-93835771D02*
X162095238Y-93835771D01*
X162095238Y-93835771D02*
X162190476Y-93883390D01*
X162190476Y-93883390D02*
X162238095Y-93931009D01*
X162238095Y-93931009D02*
X162285714Y-94026247D01*
X162285714Y-94026247D02*
X162285714Y-94264342D01*
X162285714Y-94264342D02*
X162238095Y-94359580D01*
X162238095Y-94359580D02*
X162190476Y-94407200D01*
X162190476Y-94407200D02*
X162095238Y-94454819D01*
X162095238Y-94454819D02*
X161809524Y-94454819D01*
X161809524Y-94454819D02*
X161714286Y-94407200D01*
X161714286Y-94407200D02*
X161666667Y-94359580D01*
X176333333Y-114859580D02*
X176285714Y-114907200D01*
X176285714Y-114907200D02*
X176142857Y-114954819D01*
X176142857Y-114954819D02*
X176047619Y-114954819D01*
X176047619Y-114954819D02*
X175904762Y-114907200D01*
X175904762Y-114907200D02*
X175809524Y-114811961D01*
X175809524Y-114811961D02*
X175761905Y-114716723D01*
X175761905Y-114716723D02*
X175714286Y-114526247D01*
X175714286Y-114526247D02*
X175714286Y-114383390D01*
X175714286Y-114383390D02*
X175761905Y-114192914D01*
X175761905Y-114192914D02*
X175809524Y-114097676D01*
X175809524Y-114097676D02*
X175904762Y-114002438D01*
X175904762Y-114002438D02*
X176047619Y-113954819D01*
X176047619Y-113954819D02*
X176142857Y-113954819D01*
X176142857Y-113954819D02*
X176285714Y-114002438D01*
X176285714Y-114002438D02*
X176333333Y-114050057D01*
X177285714Y-114954819D02*
X176714286Y-114954819D01*
X177000000Y-114954819D02*
X177000000Y-113954819D01*
X177000000Y-113954819D02*
X176904762Y-114097676D01*
X176904762Y-114097676D02*
X176809524Y-114192914D01*
X176809524Y-114192914D02*
X176714286Y-114240533D01*
D11*
%TO.C,D1*%
X184545000Y-103935000D02*
X181455000Y-103935000D01*
X183000000Y-109485000D02*
G75*
G02*
X181455170Y-103935000I0J2990000D01*
G01*
X184544830Y-103935000D02*
G75*
G02*
X183000000Y-109485000I-1544830J-2560000D01*
G01*
X185500000Y-106495000D02*
G75*
G02*
X180500000Y-106495000I-2500000J0D01*
G01*
X180500000Y-106495000D02*
G75*
G02*
X185500000Y-106495000I2500000J0D01*
G01*
%TO.C,R5*%
X174330000Y-93500000D02*
X174400000Y-93500000D01*
X174330000Y-93500000D02*
G75*
G02*
X171590000Y-93500000I-1370000J0D01*
G01*
X171590000Y-93500000D02*
G75*
G02*
X174330000Y-93500000I1370000J0D01*
G01*
%TO.C,U1*%
X168850000Y-83240000D02*
X179070000Y-83240000D01*
X168850000Y-84620000D02*
X179070000Y-84620000D01*
X168850000Y-87860000D02*
X168850000Y-83240000D01*
X172110000Y-83240000D02*
X172110000Y-84620000D01*
X175810000Y-83240000D02*
X175810000Y-84620000D01*
X179070000Y-83240000D02*
X179070000Y-87860000D01*
X179070000Y-87860000D02*
X168850000Y-87860000D01*
%TO.C,J1*%
X171350000Y-102860000D02*
X171350000Y-113140000D01*
X171350000Y-113140000D02*
X176650000Y-113140000D01*
X173000000Y-102860000D02*
X171350000Y-102860000D01*
X176650000Y-102860000D02*
X175000000Y-102860000D01*
X176650000Y-113140000D02*
X176650000Y-102860000D01*
X168860000Y-102800000D02*
X179140000Y-102800000D01*
X179140000Y-113200000D01*
X168860000Y-113200000D01*
X168860000Y-102800000D01*
X175000000Y-102860000D02*
G75*
G02*
X173000000Y-102860000I-1000000J0D01*
G01*
%TO.C,R4*%
X165330000Y-93500000D02*
X165400000Y-93500000D01*
X165330000Y-93500000D02*
G75*
G02*
X162590000Y-93500000I-1370000J0D01*
G01*
X162590000Y-93500000D02*
G75*
G02*
X165330000Y-93500000I1370000J0D01*
G01*
%TO.C,R3*%
X181000000Y-113170000D02*
X181000000Y-113100000D01*
X182370000Y-114540000D02*
G75*
G02*
X179630000Y-114540000I-1370000J0D01*
G01*
X179630000Y-114540000D02*
G75*
G02*
X182370000Y-114540000I1370000J0D01*
G01*
%TO.C,J3*%
X168880000Y-72380000D02*
X176200000Y-72380000D01*
X168880000Y-81620000D02*
X168880000Y-72380000D01*
X176800000Y-72380000D02*
X179120000Y-72380000D01*
X179120000Y-72380000D02*
X179120000Y-81620000D01*
X179120000Y-72900000D02*
X168880000Y-72900000D01*
X179120000Y-74000000D02*
X168880000Y-74000000D01*
X179120000Y-81620000D02*
X168880000Y-81620000D01*
X176500000Y-72380000D02*
X176060000Y-71770000D01*
X176940000Y-71770000D01*
X176500000Y-72380000D01*
G36*
X176500000Y-72380000D02*
G01*
X176060000Y-71770000D01*
X176940000Y-71770000D01*
X176500000Y-72380000D01*
G37*
%TO.C,C2*%
X169880000Y-96880000D02*
X178120000Y-96880000D01*
X169880000Y-102120000D02*
X169880000Y-96880000D01*
X178120000Y-96880000D02*
X178120000Y-102120000D01*
X178120000Y-102120000D02*
X169880000Y-102120000D01*
%TO.C,J2*%
X161120000Y-113850000D02*
X161120000Y-103580000D01*
X163880000Y-103580000D02*
X161120000Y-103580000D01*
X163880000Y-113850000D02*
X161120000Y-113850000D01*
X163880000Y-113850000D02*
X163880000Y-103580000D01*
X163880000Y-115120000D02*
X163880000Y-116500000D01*
X163880000Y-116500000D02*
X162500000Y-116500000D01*
%TO.C,R2*%
X167000000Y-113175000D02*
X167000000Y-113105000D01*
X168370000Y-114545000D02*
G75*
G02*
X165630000Y-114545000I-1370000J0D01*
G01*
X165630000Y-114545000D02*
G75*
G02*
X168370000Y-114545000I1370000J0D01*
G01*
%TO.C,R1*%
X172500000Y-104960000D02*
X172500000Y-105730000D01*
X172500000Y-113040000D02*
X172500000Y-112270000D01*
X173870000Y-105730000D02*
X171130000Y-105730000D01*
X171130000Y-112270000D01*
X173870000Y-112270000D01*
X173870000Y-105730000D01*
%TO.C,C5*%
X161192380Y-86902000D02*
X161192380Y-86098000D01*
X161232380Y-87133000D02*
X161232380Y-85867000D01*
X161272380Y-87301000D02*
X161272380Y-85699000D01*
X161312380Y-87439000D02*
X161312380Y-85561000D01*
X161352380Y-87558000D02*
X161352380Y-85442000D01*
X161392380Y-87665000D02*
X161392380Y-85335000D01*
X161432380Y-87761000D02*
X161432380Y-85239000D01*
X161472380Y-87850000D02*
X161472380Y-85150000D01*
X161512380Y-87932000D02*
X161512380Y-85068000D01*
X161552380Y-88009000D02*
X161552380Y-84991000D01*
X161592380Y-88081000D02*
X161592380Y-84919000D01*
X161632380Y-88149000D02*
X161632380Y-84851000D01*
X161672380Y-88214000D02*
X161672380Y-84786000D01*
X161712380Y-88275000D02*
X161712380Y-84725000D01*
X161752380Y-88334000D02*
X161752380Y-84666000D01*
X161792380Y-88390000D02*
X161792380Y-84610000D01*
X161832380Y-88443000D02*
X161832380Y-84557000D01*
X161872380Y-88495000D02*
X161872380Y-84505000D01*
X161912380Y-88544000D02*
X161912380Y-84456000D01*
X161952380Y-88591000D02*
X161952380Y-84409000D01*
X161992380Y-88637000D02*
X161992380Y-84363000D01*
X162032380Y-88681000D02*
X162032380Y-84319000D01*
X162072380Y-88723000D02*
X162072380Y-84277000D01*
X162112380Y-88764000D02*
X162112380Y-84236000D01*
X162152380Y-85460000D02*
X162152380Y-84196000D01*
X162152380Y-88804000D02*
X162152380Y-87540000D01*
X162192380Y-85460000D02*
X162192380Y-84158000D01*
X162192380Y-88842000D02*
X162192380Y-87540000D01*
X162232380Y-85460000D02*
X162232380Y-84121000D01*
X162232380Y-88879000D02*
X162232380Y-87540000D01*
X162272380Y-85460000D02*
X162272380Y-84085000D01*
X162272380Y-88915000D02*
X162272380Y-87540000D01*
X162312380Y-85460000D02*
X162312380Y-84050000D01*
X162312380Y-88950000D02*
X162312380Y-87540000D01*
X162352380Y-85460000D02*
X162352380Y-84017000D01*
X162352380Y-88983000D02*
X162352380Y-87540000D01*
X162392380Y-85460000D02*
X162392380Y-83984000D01*
X162392380Y-89016000D02*
X162392380Y-87540000D01*
X162432380Y-85460000D02*
X162432380Y-83953000D01*
X162432380Y-89047000D02*
X162432380Y-87540000D01*
X162472380Y-85460000D02*
X162472380Y-83923000D01*
X162472380Y-89077000D02*
X162472380Y-87540000D01*
X162512380Y-85460000D02*
X162512380Y-83893000D01*
X162512380Y-89107000D02*
X162512380Y-87540000D01*
X162552380Y-85460000D02*
X162552380Y-83864000D01*
X162552380Y-89136000D02*
X162552380Y-87540000D01*
X162592380Y-85460000D02*
X162592380Y-83837000D01*
X162592380Y-89163000D02*
X162592380Y-87540000D01*
X162632380Y-85460000D02*
X162632380Y-83810000D01*
X162632380Y-89190000D02*
X162632380Y-87540000D01*
X162672380Y-85460000D02*
X162672380Y-83784000D01*
X162672380Y-89216000D02*
X162672380Y-87540000D01*
X162712380Y-85460000D02*
X162712380Y-83759000D01*
X162712380Y-89241000D02*
X162712380Y-87540000D01*
X162752380Y-85460000D02*
X162752380Y-83735000D01*
X162752380Y-89265000D02*
X162752380Y-87540000D01*
X162792380Y-85460000D02*
X162792380Y-83711000D01*
X162792380Y-89289000D02*
X162792380Y-87540000D01*
X162832380Y-85460000D02*
X162832380Y-83688000D01*
X162832380Y-89312000D02*
X162832380Y-87540000D01*
X162872380Y-85460000D02*
X162872380Y-83666000D01*
X162872380Y-89334000D02*
X162872380Y-87540000D01*
X162912380Y-85460000D02*
X162912380Y-83645000D01*
X162912380Y-89355000D02*
X162912380Y-87540000D01*
X162952380Y-85460000D02*
X162952380Y-83624000D01*
X162952380Y-89376000D02*
X162952380Y-87540000D01*
X162992380Y-85460000D02*
X162992380Y-83604000D01*
X162992380Y-89396000D02*
X162992380Y-87540000D01*
X163032380Y-85460000D02*
X163032380Y-83585000D01*
X163032380Y-89415000D02*
X163032380Y-87540000D01*
X163072380Y-85460000D02*
X163072380Y-83566000D01*
X163072380Y-89434000D02*
X163072380Y-87540000D01*
X163112380Y-85460000D02*
X163112380Y-83548000D01*
X163112380Y-89452000D02*
X163112380Y-87540000D01*
X163152380Y-85460000D02*
X163152380Y-83531000D01*
X163152380Y-89469000D02*
X163152380Y-87540000D01*
X163192380Y-85460000D02*
X163192380Y-83514000D01*
X163192380Y-89486000D02*
X163192380Y-87540000D01*
X163232380Y-85460000D02*
X163232380Y-83498000D01*
X163232380Y-89502000D02*
X163232380Y-87540000D01*
X163272380Y-85460000D02*
X163272380Y-83483000D01*
X163272380Y-89517000D02*
X163272380Y-87540000D01*
X163312380Y-85460000D02*
X163312380Y-83468000D01*
X163312380Y-89532000D02*
X163312380Y-87540000D01*
X163352380Y-85460000D02*
X163352380Y-83453000D01*
X163352380Y-89547000D02*
X163352380Y-87540000D01*
X163392380Y-85460000D02*
X163392380Y-83440000D01*
X163392380Y-89560000D02*
X163392380Y-87540000D01*
X163432380Y-85460000D02*
X163432380Y-83427000D01*
X163432380Y-89573000D02*
X163432380Y-87540000D01*
X163472380Y-85460000D02*
X163472380Y-83414000D01*
X163472380Y-89586000D02*
X163472380Y-87540000D01*
X163512380Y-85460000D02*
X163512380Y-83402000D01*
X163512380Y-89598000D02*
X163512380Y-87540000D01*
X163552380Y-85460000D02*
X163552380Y-83391000D01*
X163552380Y-89609000D02*
X163552380Y-87540000D01*
X163592380Y-85460000D02*
X163592380Y-83380000D01*
X163592380Y-89620000D02*
X163592380Y-87540000D01*
X163632380Y-85460000D02*
X163632380Y-83369000D01*
X163632380Y-89631000D02*
X163632380Y-87540000D01*
X163672380Y-85460000D02*
X163672380Y-83360000D01*
X163672380Y-89640000D02*
X163672380Y-87540000D01*
X163712380Y-85460000D02*
X163712380Y-83350000D01*
X163712380Y-89650000D02*
X163712380Y-87540000D01*
X163752380Y-85460000D02*
X163752380Y-83341000D01*
X163752380Y-89659000D02*
X163752380Y-87540000D01*
X163792380Y-85460000D02*
X163792380Y-83333000D01*
X163792380Y-89667000D02*
X163792380Y-87540000D01*
X163832380Y-85460000D02*
X163832380Y-83326000D01*
X163832380Y-89674000D02*
X163832380Y-87540000D01*
X163872380Y-85460000D02*
X163872380Y-83318000D01*
X163872380Y-89682000D02*
X163872380Y-87540000D01*
X163912380Y-85460000D02*
X163912380Y-83312000D01*
X163912380Y-89688000D02*
X163912380Y-87540000D01*
X163952380Y-85460000D02*
X163952380Y-83305000D01*
X163952380Y-89695000D02*
X163952380Y-87540000D01*
X163992380Y-85460000D02*
X163992380Y-83300000D01*
X163992380Y-89700000D02*
X163992380Y-87540000D01*
X164032380Y-85460000D02*
X164032380Y-83295000D01*
X164032380Y-89705000D02*
X164032380Y-87540000D01*
X164072380Y-85460000D02*
X164072380Y-83290000D01*
X164072380Y-89710000D02*
X164072380Y-87540000D01*
X164112380Y-85460000D02*
X164112380Y-83286000D01*
X164112380Y-89714000D02*
X164112380Y-87540000D01*
X164152380Y-85460000D02*
X164152380Y-83282000D01*
X164152380Y-89718000D02*
X164152380Y-87540000D01*
X164192380Y-85460000D02*
X164192380Y-83279000D01*
X164192380Y-89721000D02*
X164192380Y-87540000D01*
X164232380Y-89724000D02*
X164232380Y-83276000D01*
X164272380Y-89726000D02*
X164272380Y-83274000D01*
X164312380Y-89728000D02*
X164312380Y-83272000D01*
X164352380Y-89729000D02*
X164352380Y-83271000D01*
X164392380Y-89730000D02*
X164392380Y-83270000D01*
X164432380Y-89730000D02*
X164432380Y-83270000D01*
X167617621Y-88654000D02*
X167617621Y-88024000D01*
X167932621Y-88339000D02*
X167302621Y-88339000D01*
X167702380Y-86500000D02*
G75*
G02*
X161162380Y-86500000I-3270000J0D01*
G01*
X161162380Y-86500000D02*
G75*
G02*
X167702380Y-86500000I3270000J0D01*
G01*
%TO.C,R6*%
X182500000Y-78825000D02*
X182500000Y-78895000D01*
X183870000Y-77455000D02*
G75*
G02*
X181130000Y-77455000I-1370000J0D01*
G01*
X181130000Y-77455000D02*
G75*
G02*
X183870000Y-77455000I1370000J0D01*
G01*
%TO.C,C4*%
X180249759Y-84661000D02*
X180879759Y-84661000D01*
X180564759Y-84346000D02*
X180564759Y-84976000D01*
X183750000Y-83270000D02*
X183750000Y-89730000D01*
X183790000Y-83270000D02*
X183790000Y-89730000D01*
X183830000Y-83271000D02*
X183830000Y-89729000D01*
X183870000Y-83272000D02*
X183870000Y-89728000D01*
X183910000Y-83274000D02*
X183910000Y-89726000D01*
X183950000Y-83276000D02*
X183950000Y-89724000D01*
X183990000Y-83279000D02*
X183990000Y-85460000D01*
X183990000Y-87540000D02*
X183990000Y-89721000D01*
X184030000Y-83282000D02*
X184030000Y-85460000D01*
X184030000Y-87540000D02*
X184030000Y-89718000D01*
X184070000Y-83286000D02*
X184070000Y-85460000D01*
X184070000Y-87540000D02*
X184070000Y-89714000D01*
X184110000Y-83290000D02*
X184110000Y-85460000D01*
X184110000Y-87540000D02*
X184110000Y-89710000D01*
X184150000Y-83295000D02*
X184150000Y-85460000D01*
X184150000Y-87540000D02*
X184150000Y-89705000D01*
X184190000Y-83300000D02*
X184190000Y-85460000D01*
X184190000Y-87540000D02*
X184190000Y-89700000D01*
X184230000Y-83305000D02*
X184230000Y-85460000D01*
X184230000Y-87540000D02*
X184230000Y-89695000D01*
X184270000Y-83312000D02*
X184270000Y-85460000D01*
X184270000Y-87540000D02*
X184270000Y-89688000D01*
X184310000Y-83318000D02*
X184310000Y-85460000D01*
X184310000Y-87540000D02*
X184310000Y-89682000D01*
X184350000Y-83326000D02*
X184350000Y-85460000D01*
X184350000Y-87540000D02*
X184350000Y-89674000D01*
X184390000Y-83333000D02*
X184390000Y-85460000D01*
X184390000Y-87540000D02*
X184390000Y-89667000D01*
X184430000Y-83341000D02*
X184430000Y-85460000D01*
X184430000Y-87540000D02*
X184430000Y-89659000D01*
X184470000Y-83350000D02*
X184470000Y-85460000D01*
X184470000Y-87540000D02*
X184470000Y-89650000D01*
X184510000Y-83360000D02*
X184510000Y-85460000D01*
X184510000Y-87540000D02*
X184510000Y-89640000D01*
X184550000Y-83369000D02*
X184550000Y-85460000D01*
X184550000Y-87540000D02*
X184550000Y-89631000D01*
X184590000Y-83380000D02*
X184590000Y-85460000D01*
X184590000Y-87540000D02*
X184590000Y-89620000D01*
X184630000Y-83391000D02*
X184630000Y-85460000D01*
X184630000Y-87540000D02*
X184630000Y-89609000D01*
X184670000Y-83402000D02*
X184670000Y-85460000D01*
X184670000Y-87540000D02*
X184670000Y-89598000D01*
X184710000Y-83414000D02*
X184710000Y-85460000D01*
X184710000Y-87540000D02*
X184710000Y-89586000D01*
X184750000Y-83427000D02*
X184750000Y-85460000D01*
X184750000Y-87540000D02*
X184750000Y-89573000D01*
X184790000Y-83440000D02*
X184790000Y-85460000D01*
X184790000Y-87540000D02*
X184790000Y-89560000D01*
X184830000Y-83453000D02*
X184830000Y-85460000D01*
X184830000Y-87540000D02*
X184830000Y-89547000D01*
X184870000Y-83468000D02*
X184870000Y-85460000D01*
X184870000Y-87540000D02*
X184870000Y-89532000D01*
X184910000Y-83483000D02*
X184910000Y-85460000D01*
X184910000Y-87540000D02*
X184910000Y-89517000D01*
X184950000Y-83498000D02*
X184950000Y-85460000D01*
X184950000Y-87540000D02*
X184950000Y-89502000D01*
X184990000Y-83514000D02*
X184990000Y-85460000D01*
X184990000Y-87540000D02*
X184990000Y-89486000D01*
X185030000Y-83531000D02*
X185030000Y-85460000D01*
X185030000Y-87540000D02*
X185030000Y-89469000D01*
X185070000Y-83548000D02*
X185070000Y-85460000D01*
X185070000Y-87540000D02*
X185070000Y-89452000D01*
X185110000Y-83566000D02*
X185110000Y-85460000D01*
X185110000Y-87540000D02*
X185110000Y-89434000D01*
X185150000Y-83585000D02*
X185150000Y-85460000D01*
X185150000Y-87540000D02*
X185150000Y-89415000D01*
X185190000Y-83604000D02*
X185190000Y-85460000D01*
X185190000Y-87540000D02*
X185190000Y-89396000D01*
X185230000Y-83624000D02*
X185230000Y-85460000D01*
X185230000Y-87540000D02*
X185230000Y-89376000D01*
X185270000Y-83645000D02*
X185270000Y-85460000D01*
X185270000Y-87540000D02*
X185270000Y-89355000D01*
X185310000Y-83666000D02*
X185310000Y-85460000D01*
X185310000Y-87540000D02*
X185310000Y-89334000D01*
X185350000Y-83688000D02*
X185350000Y-85460000D01*
X185350000Y-87540000D02*
X185350000Y-89312000D01*
X185390000Y-83711000D02*
X185390000Y-85460000D01*
X185390000Y-87540000D02*
X185390000Y-89289000D01*
X185430000Y-83735000D02*
X185430000Y-85460000D01*
X185430000Y-87540000D02*
X185430000Y-89265000D01*
X185470000Y-83759000D02*
X185470000Y-85460000D01*
X185470000Y-87540000D02*
X185470000Y-89241000D01*
X185510000Y-83784000D02*
X185510000Y-85460000D01*
X185510000Y-87540000D02*
X185510000Y-89216000D01*
X185550000Y-83810000D02*
X185550000Y-85460000D01*
X185550000Y-87540000D02*
X185550000Y-89190000D01*
X185590000Y-83837000D02*
X185590000Y-85460000D01*
X185590000Y-87540000D02*
X185590000Y-89163000D01*
X185630000Y-83864000D02*
X185630000Y-85460000D01*
X185630000Y-87540000D02*
X185630000Y-89136000D01*
X185670000Y-83893000D02*
X185670000Y-85460000D01*
X185670000Y-87540000D02*
X185670000Y-89107000D01*
X185710000Y-83923000D02*
X185710000Y-85460000D01*
X185710000Y-87540000D02*
X185710000Y-89077000D01*
X185750000Y-83953000D02*
X185750000Y-85460000D01*
X185750000Y-87540000D02*
X185750000Y-89047000D01*
X185790000Y-83984000D02*
X185790000Y-85460000D01*
X185790000Y-87540000D02*
X185790000Y-89016000D01*
X185830000Y-84017000D02*
X185830000Y-85460000D01*
X185830000Y-87540000D02*
X185830000Y-88983000D01*
X185870000Y-84050000D02*
X185870000Y-85460000D01*
X185870000Y-87540000D02*
X185870000Y-88950000D01*
X185910000Y-84085000D02*
X185910000Y-85460000D01*
X185910000Y-87540000D02*
X185910000Y-88915000D01*
X185950000Y-84121000D02*
X185950000Y-85460000D01*
X185950000Y-87540000D02*
X185950000Y-88879000D01*
X185990000Y-84158000D02*
X185990000Y-85460000D01*
X185990000Y-87540000D02*
X185990000Y-88842000D01*
X186030000Y-84196000D02*
X186030000Y-85460000D01*
X186030000Y-87540000D02*
X186030000Y-88804000D01*
X186070000Y-84236000D02*
X186070000Y-88764000D01*
X186110000Y-84277000D02*
X186110000Y-88723000D01*
X186150000Y-84319000D02*
X186150000Y-88681000D01*
X186190000Y-84363000D02*
X186190000Y-88637000D01*
X186230000Y-84409000D02*
X186230000Y-88591000D01*
X186270000Y-84456000D02*
X186270000Y-88544000D01*
X186310000Y-84505000D02*
X186310000Y-88495000D01*
X186350000Y-84557000D02*
X186350000Y-88443000D01*
X186390000Y-84610000D02*
X186390000Y-88390000D01*
X186430000Y-84666000D02*
X186430000Y-88334000D01*
X186470000Y-84725000D02*
X186470000Y-88275000D01*
X186510000Y-84786000D02*
X186510000Y-88214000D01*
X186550000Y-84851000D02*
X186550000Y-88149000D01*
X186590000Y-84919000D02*
X186590000Y-88081000D01*
X186630000Y-84991000D02*
X186630000Y-88009000D01*
X186670000Y-85068000D02*
X186670000Y-87932000D01*
X186710000Y-85150000D02*
X186710000Y-87850000D01*
X186750000Y-85239000D02*
X186750000Y-87761000D01*
X186790000Y-85335000D02*
X186790000Y-87665000D01*
X186830000Y-85442000D02*
X186830000Y-87558000D01*
X186870000Y-85561000D02*
X186870000Y-87439000D01*
X186910000Y-85699000D02*
X186910000Y-87301000D01*
X186950000Y-85867000D02*
X186950000Y-87133000D01*
X186990000Y-86098000D02*
X186990000Y-86902000D01*
X187020000Y-86500000D02*
G75*
G02*
X180480000Y-86500000I-3270000J0D01*
G01*
X180480000Y-86500000D02*
G75*
G02*
X187020000Y-86500000I3270000J0D01*
G01*
%TO.C,C3*%
X160880000Y-96880000D02*
X169120000Y-96880000D01*
X160880000Y-102120000D02*
X160880000Y-96880000D01*
X169120000Y-96880000D02*
X169120000Y-102120000D01*
X169120000Y-102120000D02*
X160880000Y-102120000D01*
%TO.C,C1*%
X172380000Y-103880000D02*
X177620000Y-103880000D01*
X172380000Y-112120000D02*
X172380000Y-103880000D01*
X177620000Y-103880000D02*
X177620000Y-112120000D01*
X177620000Y-112120000D02*
X172380000Y-112120000D01*
%TD*%
%LPC*%
D12*
%TO.C,D1*%
X183000000Y-105225000D03*
D13*
X183000000Y-107765000D03*
%TD*%
D14*
%TO.C,R5*%
X172960000Y-93500000D03*
X175500000Y-93500000D03*
%TD*%
D15*
%TO.C,U1*%
X171420000Y-86500000D03*
D16*
X173960000Y-86500000D03*
X176500000Y-86500000D03*
%TD*%
D17*
%TO.C,J1*%
X170190000Y-104190000D03*
D14*
X170190000Y-106730000D03*
X170190000Y-109270000D03*
X170190000Y-111810000D03*
X177810000Y-111810000D03*
X177810000Y-109270000D03*
X177810000Y-106730000D03*
X177810000Y-104190000D03*
%TD*%
%TO.C,R4*%
X163960000Y-93500000D03*
X166500000Y-93500000D03*
%TD*%
%TO.C,R3*%
X181000000Y-114540000D03*
X181000000Y-112000000D03*
%TD*%
D18*
%TO.C,J3*%
X176500000Y-77500000D03*
D19*
X171500000Y-77500000D03*
%TD*%
D20*
%TO.C,C2*%
X171500000Y-99500000D03*
X176500000Y-99500000D03*
%TD*%
D21*
%TO.C,J2*%
X162500000Y-115120000D03*
D22*
X162500000Y-112580000D03*
X162500000Y-110040000D03*
X162500000Y-107500000D03*
X162500000Y-104960000D03*
%TD*%
D14*
%TO.C,R2*%
X167000000Y-114545000D03*
X167000000Y-112005000D03*
%TD*%
%TO.C,R1*%
X172500000Y-103920000D03*
X172500000Y-114080000D03*
%TD*%
D23*
%TO.C,C5*%
X165682380Y-86500000D03*
D14*
X163182380Y-86500000D03*
%TD*%
%TO.C,R6*%
X182500000Y-77455000D03*
X182500000Y-79995000D03*
%TD*%
D17*
%TO.C,C4*%
X182500000Y-86500000D03*
D14*
X185000000Y-86500000D03*
%TD*%
D20*
%TO.C,C3*%
X167500000Y-99500000D03*
X162500000Y-99500000D03*
%TD*%
%TO.C,C1*%
X175000000Y-110500000D03*
X175000000Y-105500000D03*
%TD*%
%LPD*%
M02*
