%TF.GenerationSoftware,KiCad,Pcbnew,9.0.6*%
%TF.CreationDate,2025-11-06T07:23:17-05:00*%
%TF.ProjectId,pic-rylr998-01,7069632d-7279-46c7-9239-39382d30312e,rev?*%
%TF.SameCoordinates,Original*%
%TF.FileFunction,Soldermask,Bot*%
%TF.FilePolarity,Negative*%
%FSLAX46Y46*%
G04 Gerber Fmt 4.6, Leading zero omitted, Abs format (unit mm)*
G04 Created by KiCad (PCBNEW 9.0.6) date 2025-11-06 07:23:17*
%MOMM*%
%LPD*%
G01*
G04 APERTURE LIST*
G04 Aperture macros list*
%AMRoundRect*
0 Rectangle with rounded corners*
0 $1 Rounding radius*
0 $2 $3 $4 $5 $6 $7 $8 $9 X,Y pos of 4 corners*
0 Add a 4 corners polygon primitive as box body*
4,1,4,$2,$3,$4,$5,$6,$7,$8,$9,$2,$3,0*
0 Add four circle primitives for the rounded corners*
1,1,$1+$1,$2,$3*
1,1,$1+$1,$4,$5*
1,1,$1+$1,$6,$7*
1,1,$1+$1,$8,$9*
0 Add four rect primitives between the rounded corners*
20,1,$1+$1,$2,$3,$4,$5,0*
20,1,$1+$1,$4,$5,$6,$7,0*
20,1,$1+$1,$6,$7,$8,$9,0*
20,1,$1+$1,$8,$9,$2,$3,0*%
G04 Aperture macros list end*
%ADD10R,1.800000X1.800000*%
%ADD11C,1.800000*%
%ADD12C,1.600000*%
%ADD13R,1.905000X2.000000*%
%ADD14O,1.905000X2.000000*%
%ADD15RoundRect,0.250000X-0.550000X-0.550000X0.550000X-0.550000X0.550000X0.550000X-0.550000X0.550000X0*%
%ADD16RoundRect,0.250000X1.050000X1.050000X-1.050000X1.050000X-1.050000X-1.050000X1.050000X-1.050000X0*%
%ADD17C,2.600000*%
%ADD18C,2.000000*%
%ADD19R,1.700000X1.700000*%
%ADD20C,1.700000*%
%ADD21RoundRect,0.250000X0.550000X0.550000X-0.550000X0.550000X-0.550000X-0.550000X0.550000X-0.550000X0*%
G04 APERTURE END LIST*
D10*
%TO.C,D1*%
X183000000Y-105225000D03*
D11*
X183000000Y-107765000D03*
%TD*%
D12*
%TO.C,R5*%
X172960000Y-93500000D03*
X175500000Y-93500000D03*
%TD*%
D13*
%TO.C,U1*%
X171420000Y-86500000D03*
D14*
X173960000Y-86500000D03*
X176500000Y-86500000D03*
%TD*%
D15*
%TO.C,J1*%
X170190000Y-104190000D03*
D12*
X170190000Y-106730000D03*
X170190000Y-109270000D03*
X170190000Y-111810000D03*
X177810000Y-111810000D03*
X177810000Y-109270000D03*
X177810000Y-106730000D03*
X177810000Y-104190000D03*
%TD*%
%TO.C,R4*%
X163960000Y-93500000D03*
X166500000Y-93500000D03*
%TD*%
%TO.C,R3*%
X181000000Y-114540000D03*
X181000000Y-112000000D03*
%TD*%
D16*
%TO.C,J3*%
X176500000Y-77500000D03*
D17*
X171500000Y-77500000D03*
%TD*%
D18*
%TO.C,C2*%
X171500000Y-99500000D03*
X176500000Y-99500000D03*
%TD*%
D19*
%TO.C,J2*%
X162500000Y-115120000D03*
D20*
X162500000Y-112580000D03*
X162500000Y-110040000D03*
X162500000Y-107500000D03*
X162500000Y-104960000D03*
%TD*%
D12*
%TO.C,R2*%
X167000000Y-114545000D03*
X167000000Y-112005000D03*
%TD*%
%TO.C,R1*%
X172500000Y-103920000D03*
X172500000Y-114080000D03*
%TD*%
D21*
%TO.C,C5*%
X165682380Y-86500000D03*
D12*
X163182380Y-86500000D03*
%TD*%
%TO.C,R6*%
X182500000Y-77455000D03*
X182500000Y-79995000D03*
%TD*%
D15*
%TO.C,C4*%
X182500000Y-86500000D03*
D12*
X185000000Y-86500000D03*
%TD*%
D18*
%TO.C,C3*%
X167500000Y-99500000D03*
X162500000Y-99500000D03*
%TD*%
%TO.C,C1*%
X175000000Y-110500000D03*
X175000000Y-105500000D03*
%TD*%
M02*
