%TF.GenerationSoftware,KiCad,Pcbnew,9.0.6*%
%TF.CreationDate,2025-11-06T07:25:22-05:00*%
%TF.ProjectId,pic-rylr998-01,7069632d-7279-46c7-9239-39382d30312e,rev?*%
%TF.SameCoordinates,Original*%
%TF.FileFunction,Drillmap*%
%TF.FilePolarity,Positive*%
%FSLAX45Y45*%
G04 Gerber Fmt 4.5, Leading zero omitted, Abs format (unit mm)*
G04 Created by KiCad (PCBNEW 9.0.6) date 2025-11-06 07:25:22*
%MOMM*%
%LPD*%
G01*
G04 APERTURE LIST*
%ADD10C,0.050000*%
%ADD11C,0.200000*%
%ADD12C,0.100000*%
%ADD13C,0.110000*%
%ADD14C,0.130000*%
G04 APERTURE END LIST*
D10*
X15900000Y-11850000D02*
X18750000Y-11850000D01*
X15900000Y-7150000D02*
X15900000Y-11850000D01*
X18750000Y-7150000D02*
X15900000Y-7150000D01*
X18750000Y-11850000D02*
X18750000Y-7150000D01*
D11*
D12*
X16278238Y-8610000D02*
X16358238Y-8690000D01*
X16358238Y-8610000D02*
X16278238Y-8690000D01*
X16356000Y-9310000D02*
X16436000Y-9390000D01*
X16436000Y-9310000D02*
X16356000Y-9390000D01*
X16528238Y-8610000D02*
X16608238Y-8690000D01*
X16608238Y-8610000D02*
X16528238Y-8690000D01*
X16610000Y-9310000D02*
X16690000Y-9390000D01*
X16690000Y-9310000D02*
X16610000Y-9390000D01*
X16660000Y-11160500D02*
X16740000Y-11240500D01*
X16740000Y-11160500D02*
X16660000Y-11240500D01*
X16660000Y-11414500D02*
X16740000Y-11494500D01*
X16740000Y-11414500D02*
X16660000Y-11494500D01*
X16979000Y-10379000D02*
X17059000Y-10459000D01*
X17059000Y-10379000D02*
X16979000Y-10459000D01*
X16979000Y-10633000D02*
X17059000Y-10713000D01*
X17059000Y-10633000D02*
X16979000Y-10713000D01*
X16979000Y-10887000D02*
X17059000Y-10967000D01*
X17059000Y-10887000D02*
X16979000Y-10967000D01*
X16979000Y-11141000D02*
X17059000Y-11221000D01*
X17059000Y-11141000D02*
X16979000Y-11221000D01*
X17210000Y-10352000D02*
X17290000Y-10432000D01*
X17290000Y-10352000D02*
X17210000Y-10432000D01*
X17210000Y-11368000D02*
X17290000Y-11448000D01*
X17290000Y-11368000D02*
X17210000Y-11448000D01*
X17256000Y-9310000D02*
X17336000Y-9390000D01*
X17336000Y-9310000D02*
X17256000Y-9390000D01*
X17510000Y-9310000D02*
X17590000Y-9390000D01*
X17590000Y-9310000D02*
X17510000Y-9390000D01*
X17741000Y-10379000D02*
X17821000Y-10459000D01*
X17821000Y-10379000D02*
X17741000Y-10459000D01*
X17741000Y-10633000D02*
X17821000Y-10713000D01*
X17821000Y-10633000D02*
X17741000Y-10713000D01*
X17741000Y-10887000D02*
X17821000Y-10967000D01*
X17821000Y-10887000D02*
X17741000Y-10967000D01*
X17741000Y-11141000D02*
X17821000Y-11221000D01*
X17821000Y-11141000D02*
X17741000Y-11221000D01*
X18060000Y-11160000D02*
X18140000Y-11240000D01*
X18140000Y-11160000D02*
X18060000Y-11240000D01*
X18060000Y-11414000D02*
X18140000Y-11494000D01*
X18140000Y-11414000D02*
X18060000Y-11494000D01*
X18210000Y-7705500D02*
X18290000Y-7785500D01*
X18290000Y-7705500D02*
X18210000Y-7785500D01*
X18210000Y-7959500D02*
X18290000Y-8039500D01*
X18290000Y-7959500D02*
X18210000Y-8039500D01*
X18210000Y-8610000D02*
X18290000Y-8690000D01*
X18290000Y-8610000D02*
X18210000Y-8690000D01*
X18460000Y-8610000D02*
X18540000Y-8690000D01*
X18540000Y-8610000D02*
X18460000Y-8690000D01*
X18345000Y-10522500D02*
G75*
G02*
X18255000Y-10522500I-45000J0D01*
G01*
X18255000Y-10522500D02*
G75*
G02*
X18345000Y-10522500I45000J0D01*
G01*
X18345000Y-10776500D02*
G75*
G02*
X18255000Y-10776500I-45000J0D01*
G01*
X18255000Y-10776500D02*
G75*
G02*
X18345000Y-10776500I45000J0D01*
G01*
X16250000Y-9900000D02*
X16250000Y-10000000D01*
X16200000Y-9950000D02*
X16300000Y-9950000D01*
X16250000Y-10446000D02*
X16250000Y-10546000D01*
X16200000Y-10496000D02*
X16300000Y-10496000D01*
X16250000Y-10700000D02*
X16250000Y-10800000D01*
X16200000Y-10750000D02*
X16300000Y-10750000D01*
X16250000Y-10954000D02*
X16250000Y-11054000D01*
X16200000Y-11004000D02*
X16300000Y-11004000D01*
X16250000Y-11208000D02*
X16250000Y-11308000D01*
X16200000Y-11258000D02*
X16300000Y-11258000D01*
X16250000Y-11462000D02*
X16250000Y-11562000D01*
X16200000Y-11512000D02*
X16300000Y-11512000D01*
X16750000Y-9900000D02*
X16750000Y-10000000D01*
X16700000Y-9950000D02*
X16800000Y-9950000D01*
X17150000Y-9900000D02*
X17150000Y-10000000D01*
X17100000Y-9950000D02*
X17200000Y-9950000D01*
X17500000Y-10500000D02*
X17500000Y-10600000D01*
X17450000Y-10550000D02*
X17550000Y-10550000D01*
X17500000Y-11000000D02*
X17500000Y-11100000D01*
X17450000Y-11050000D02*
X17550000Y-11050000D01*
X17650000Y-9900000D02*
X17650000Y-10000000D01*
X17600000Y-9950000D02*
X17700000Y-9950000D01*
D13*
X17180891Y-8688891D02*
X17180891Y-8611109D01*
X17103109Y-8611109D01*
X17103109Y-8688891D01*
X17180891Y-8688891D01*
X17434891Y-8688891D02*
X17434891Y-8611109D01*
X17357109Y-8611109D01*
X17357109Y-8688891D01*
X17434891Y-8688891D01*
X17688891Y-8688891D02*
X17688891Y-8611109D01*
X17611109Y-8611109D01*
X17611109Y-8688891D01*
X17688891Y-8688891D01*
D14*
X17150000Y-7815000D02*
X17215000Y-7750000D01*
X17150000Y-7685000D01*
X17085000Y-7750000D01*
X17150000Y-7815000D01*
X17650000Y-7815000D02*
X17715000Y-7750000D01*
X17650000Y-7685000D01*
X17585000Y-7750000D01*
X17650000Y-7815000D01*
D11*
X16158277Y-12163984D02*
X16158277Y-11963984D01*
X16158277Y-11963984D02*
X16205896Y-11963984D01*
X16205896Y-11963984D02*
X16234467Y-11973508D01*
X16234467Y-11973508D02*
X16253515Y-11992555D01*
X16253515Y-11992555D02*
X16263039Y-12011603D01*
X16263039Y-12011603D02*
X16272562Y-12049698D01*
X16272562Y-12049698D02*
X16272562Y-12078269D01*
X16272562Y-12078269D02*
X16263039Y-12116365D01*
X16263039Y-12116365D02*
X16253515Y-12135412D01*
X16253515Y-12135412D02*
X16234467Y-12154460D01*
X16234467Y-12154460D02*
X16205896Y-12163984D01*
X16205896Y-12163984D02*
X16158277Y-12163984D01*
X16358277Y-12163984D02*
X16358277Y-12030650D01*
X16358277Y-12068746D02*
X16367801Y-12049698D01*
X16367801Y-12049698D02*
X16377324Y-12040174D01*
X16377324Y-12040174D02*
X16396372Y-12030650D01*
X16396372Y-12030650D02*
X16415420Y-12030650D01*
X16482086Y-12163984D02*
X16482086Y-12030650D01*
X16482086Y-11963984D02*
X16472562Y-11973508D01*
X16472562Y-11973508D02*
X16482086Y-11983031D01*
X16482086Y-11983031D02*
X16491610Y-11973508D01*
X16491610Y-11973508D02*
X16482086Y-11963984D01*
X16482086Y-11963984D02*
X16482086Y-11983031D01*
X16605896Y-12163984D02*
X16586848Y-12154460D01*
X16586848Y-12154460D02*
X16577324Y-12135412D01*
X16577324Y-12135412D02*
X16577324Y-11963984D01*
X16710658Y-12163984D02*
X16691610Y-12154460D01*
X16691610Y-12154460D02*
X16682086Y-12135412D01*
X16682086Y-12135412D02*
X16682086Y-11963984D01*
X16939229Y-12163984D02*
X16939229Y-11963984D01*
X16939229Y-11963984D02*
X17005896Y-12106841D01*
X17005896Y-12106841D02*
X17072563Y-11963984D01*
X17072563Y-11963984D02*
X17072563Y-12163984D01*
X17253515Y-12163984D02*
X17253515Y-12059222D01*
X17253515Y-12059222D02*
X17243991Y-12040174D01*
X17243991Y-12040174D02*
X17224944Y-12030650D01*
X17224944Y-12030650D02*
X17186848Y-12030650D01*
X17186848Y-12030650D02*
X17167801Y-12040174D01*
X17253515Y-12154460D02*
X17234467Y-12163984D01*
X17234467Y-12163984D02*
X17186848Y-12163984D01*
X17186848Y-12163984D02*
X17167801Y-12154460D01*
X17167801Y-12154460D02*
X17158277Y-12135412D01*
X17158277Y-12135412D02*
X17158277Y-12116365D01*
X17158277Y-12116365D02*
X17167801Y-12097317D01*
X17167801Y-12097317D02*
X17186848Y-12087793D01*
X17186848Y-12087793D02*
X17234467Y-12087793D01*
X17234467Y-12087793D02*
X17253515Y-12078269D01*
X17348753Y-12030650D02*
X17348753Y-12230650D01*
X17348753Y-12040174D02*
X17367801Y-12030650D01*
X17367801Y-12030650D02*
X17405896Y-12030650D01*
X17405896Y-12030650D02*
X17424944Y-12040174D01*
X17424944Y-12040174D02*
X17434467Y-12049698D01*
X17434467Y-12049698D02*
X17443991Y-12068746D01*
X17443991Y-12068746D02*
X17443991Y-12125888D01*
X17443991Y-12125888D02*
X17434467Y-12144936D01*
X17434467Y-12144936D02*
X17424944Y-12154460D01*
X17424944Y-12154460D02*
X17405896Y-12163984D01*
X17405896Y-12163984D02*
X17367801Y-12163984D01*
X17367801Y-12163984D02*
X17348753Y-12154460D01*
X17529705Y-12144936D02*
X17539229Y-12154460D01*
X17539229Y-12154460D02*
X17529705Y-12163984D01*
X17529705Y-12163984D02*
X17520182Y-12154460D01*
X17520182Y-12154460D02*
X17529705Y-12144936D01*
X17529705Y-12144936D02*
X17529705Y-12163984D01*
X17529705Y-12040174D02*
X17539229Y-12049698D01*
X17539229Y-12049698D02*
X17529705Y-12059222D01*
X17529705Y-12059222D02*
X17520182Y-12049698D01*
X17520182Y-12049698D02*
X17529705Y-12040174D01*
X17529705Y-12040174D02*
X17529705Y-12059222D01*
D12*
X15817500Y-12452500D02*
X15897500Y-12532500D01*
X15897500Y-12452500D02*
X15817500Y-12532500D01*
D11*
X16196372Y-12383984D02*
X16215420Y-12383984D01*
X16215420Y-12383984D02*
X16234467Y-12393508D01*
X16234467Y-12393508D02*
X16243991Y-12403031D01*
X16243991Y-12403031D02*
X16253515Y-12422079D01*
X16253515Y-12422079D02*
X16263039Y-12460174D01*
X16263039Y-12460174D02*
X16263039Y-12507793D01*
X16263039Y-12507793D02*
X16253515Y-12545888D01*
X16253515Y-12545888D02*
X16243991Y-12564936D01*
X16243991Y-12564936D02*
X16234467Y-12574460D01*
X16234467Y-12574460D02*
X16215420Y-12583984D01*
X16215420Y-12583984D02*
X16196372Y-12583984D01*
X16196372Y-12583984D02*
X16177324Y-12574460D01*
X16177324Y-12574460D02*
X16167801Y-12564936D01*
X16167801Y-12564936D02*
X16158277Y-12545888D01*
X16158277Y-12545888D02*
X16148753Y-12507793D01*
X16148753Y-12507793D02*
X16148753Y-12460174D01*
X16148753Y-12460174D02*
X16158277Y-12422079D01*
X16158277Y-12422079D02*
X16167801Y-12403031D01*
X16167801Y-12403031D02*
X16177324Y-12393508D01*
X16177324Y-12393508D02*
X16196372Y-12383984D01*
X16348753Y-12564936D02*
X16358277Y-12574460D01*
X16358277Y-12574460D02*
X16348753Y-12583984D01*
X16348753Y-12583984D02*
X16339229Y-12574460D01*
X16339229Y-12574460D02*
X16348753Y-12564936D01*
X16348753Y-12564936D02*
X16348753Y-12583984D01*
X16472562Y-12469698D02*
X16453515Y-12460174D01*
X16453515Y-12460174D02*
X16443991Y-12450650D01*
X16443991Y-12450650D02*
X16434467Y-12431603D01*
X16434467Y-12431603D02*
X16434467Y-12422079D01*
X16434467Y-12422079D02*
X16443991Y-12403031D01*
X16443991Y-12403031D02*
X16453515Y-12393508D01*
X16453515Y-12393508D02*
X16472562Y-12383984D01*
X16472562Y-12383984D02*
X16510658Y-12383984D01*
X16510658Y-12383984D02*
X16529705Y-12393508D01*
X16529705Y-12393508D02*
X16539229Y-12403031D01*
X16539229Y-12403031D02*
X16548753Y-12422079D01*
X16548753Y-12422079D02*
X16548753Y-12431603D01*
X16548753Y-12431603D02*
X16539229Y-12450650D01*
X16539229Y-12450650D02*
X16529705Y-12460174D01*
X16529705Y-12460174D02*
X16510658Y-12469698D01*
X16510658Y-12469698D02*
X16472562Y-12469698D01*
X16472562Y-12469698D02*
X16453515Y-12479222D01*
X16453515Y-12479222D02*
X16443991Y-12488746D01*
X16443991Y-12488746D02*
X16434467Y-12507793D01*
X16434467Y-12507793D02*
X16434467Y-12545888D01*
X16434467Y-12545888D02*
X16443991Y-12564936D01*
X16443991Y-12564936D02*
X16453515Y-12574460D01*
X16453515Y-12574460D02*
X16472562Y-12583984D01*
X16472562Y-12583984D02*
X16510658Y-12583984D01*
X16510658Y-12583984D02*
X16529705Y-12574460D01*
X16529705Y-12574460D02*
X16539229Y-12564936D01*
X16539229Y-12564936D02*
X16548753Y-12545888D01*
X16548753Y-12545888D02*
X16548753Y-12507793D01*
X16548753Y-12507793D02*
X16539229Y-12488746D01*
X16539229Y-12488746D02*
X16529705Y-12479222D01*
X16529705Y-12479222D02*
X16510658Y-12469698D01*
X16672562Y-12383984D02*
X16691610Y-12383984D01*
X16691610Y-12383984D02*
X16710658Y-12393508D01*
X16710658Y-12393508D02*
X16720182Y-12403031D01*
X16720182Y-12403031D02*
X16729705Y-12422079D01*
X16729705Y-12422079D02*
X16739229Y-12460174D01*
X16739229Y-12460174D02*
X16739229Y-12507793D01*
X16739229Y-12507793D02*
X16729705Y-12545888D01*
X16729705Y-12545888D02*
X16720182Y-12564936D01*
X16720182Y-12564936D02*
X16710658Y-12574460D01*
X16710658Y-12574460D02*
X16691610Y-12583984D01*
X16691610Y-12583984D02*
X16672562Y-12583984D01*
X16672562Y-12583984D02*
X16653515Y-12574460D01*
X16653515Y-12574460D02*
X16643991Y-12564936D01*
X16643991Y-12564936D02*
X16634467Y-12545888D01*
X16634467Y-12545888D02*
X16624943Y-12507793D01*
X16624943Y-12507793D02*
X16624943Y-12460174D01*
X16624943Y-12460174D02*
X16634467Y-12422079D01*
X16634467Y-12422079D02*
X16643991Y-12403031D01*
X16643991Y-12403031D02*
X16653515Y-12393508D01*
X16653515Y-12393508D02*
X16672562Y-12383984D01*
X16863039Y-12383984D02*
X16882086Y-12383984D01*
X16882086Y-12383984D02*
X16901134Y-12393508D01*
X16901134Y-12393508D02*
X16910658Y-12403031D01*
X16910658Y-12403031D02*
X16920182Y-12422079D01*
X16920182Y-12422079D02*
X16929705Y-12460174D01*
X16929705Y-12460174D02*
X16929705Y-12507793D01*
X16929705Y-12507793D02*
X16920182Y-12545888D01*
X16920182Y-12545888D02*
X16910658Y-12564936D01*
X16910658Y-12564936D02*
X16901134Y-12574460D01*
X16901134Y-12574460D02*
X16882086Y-12583984D01*
X16882086Y-12583984D02*
X16863039Y-12583984D01*
X16863039Y-12583984D02*
X16843991Y-12574460D01*
X16843991Y-12574460D02*
X16834467Y-12564936D01*
X16834467Y-12564936D02*
X16824944Y-12545888D01*
X16824944Y-12545888D02*
X16815420Y-12507793D01*
X16815420Y-12507793D02*
X16815420Y-12460174D01*
X16815420Y-12460174D02*
X16824944Y-12422079D01*
X16824944Y-12422079D02*
X16834467Y-12403031D01*
X16834467Y-12403031D02*
X16843991Y-12393508D01*
X16843991Y-12393508D02*
X16863039Y-12383984D01*
X17015420Y-12583984D02*
X17015420Y-12450650D01*
X17015420Y-12469698D02*
X17024944Y-12460174D01*
X17024944Y-12460174D02*
X17043991Y-12450650D01*
X17043991Y-12450650D02*
X17072563Y-12450650D01*
X17072563Y-12450650D02*
X17091610Y-12460174D01*
X17091610Y-12460174D02*
X17101134Y-12479222D01*
X17101134Y-12479222D02*
X17101134Y-12583984D01*
X17101134Y-12479222D02*
X17110658Y-12460174D01*
X17110658Y-12460174D02*
X17129705Y-12450650D01*
X17129705Y-12450650D02*
X17158277Y-12450650D01*
X17158277Y-12450650D02*
X17177325Y-12460174D01*
X17177325Y-12460174D02*
X17186848Y-12479222D01*
X17186848Y-12479222D02*
X17186848Y-12583984D01*
X17282086Y-12583984D02*
X17282086Y-12450650D01*
X17282086Y-12469698D02*
X17291610Y-12460174D01*
X17291610Y-12460174D02*
X17310658Y-12450650D01*
X17310658Y-12450650D02*
X17339229Y-12450650D01*
X17339229Y-12450650D02*
X17358277Y-12460174D01*
X17358277Y-12460174D02*
X17367801Y-12479222D01*
X17367801Y-12479222D02*
X17367801Y-12583984D01*
X17367801Y-12479222D02*
X17377325Y-12460174D01*
X17377325Y-12460174D02*
X17396372Y-12450650D01*
X17396372Y-12450650D02*
X17424944Y-12450650D01*
X17424944Y-12450650D02*
X17443991Y-12460174D01*
X17443991Y-12460174D02*
X17453515Y-12479222D01*
X17453515Y-12479222D02*
X17453515Y-12583984D01*
X17843991Y-12374460D02*
X17672563Y-12631603D01*
X18101134Y-12383984D02*
X18120182Y-12383984D01*
X18120182Y-12383984D02*
X18139229Y-12393508D01*
X18139229Y-12393508D02*
X18148753Y-12403031D01*
X18148753Y-12403031D02*
X18158277Y-12422079D01*
X18158277Y-12422079D02*
X18167801Y-12460174D01*
X18167801Y-12460174D02*
X18167801Y-12507793D01*
X18167801Y-12507793D02*
X18158277Y-12545888D01*
X18158277Y-12545888D02*
X18148753Y-12564936D01*
X18148753Y-12564936D02*
X18139229Y-12574460D01*
X18139229Y-12574460D02*
X18120182Y-12583984D01*
X18120182Y-12583984D02*
X18101134Y-12583984D01*
X18101134Y-12583984D02*
X18082087Y-12574460D01*
X18082087Y-12574460D02*
X18072563Y-12564936D01*
X18072563Y-12564936D02*
X18063039Y-12545888D01*
X18063039Y-12545888D02*
X18053515Y-12507793D01*
X18053515Y-12507793D02*
X18053515Y-12460174D01*
X18053515Y-12460174D02*
X18063039Y-12422079D01*
X18063039Y-12422079D02*
X18072563Y-12403031D01*
X18072563Y-12403031D02*
X18082087Y-12393508D01*
X18082087Y-12393508D02*
X18101134Y-12383984D01*
X18253515Y-12564936D02*
X18263039Y-12574460D01*
X18263039Y-12574460D02*
X18253515Y-12583984D01*
X18253515Y-12583984D02*
X18243991Y-12574460D01*
X18243991Y-12574460D02*
X18253515Y-12564936D01*
X18253515Y-12564936D02*
X18253515Y-12583984D01*
X18386848Y-12383984D02*
X18405896Y-12383984D01*
X18405896Y-12383984D02*
X18424944Y-12393508D01*
X18424944Y-12393508D02*
X18434468Y-12403031D01*
X18434468Y-12403031D02*
X18443991Y-12422079D01*
X18443991Y-12422079D02*
X18453515Y-12460174D01*
X18453515Y-12460174D02*
X18453515Y-12507793D01*
X18453515Y-12507793D02*
X18443991Y-12545888D01*
X18443991Y-12545888D02*
X18434468Y-12564936D01*
X18434468Y-12564936D02*
X18424944Y-12574460D01*
X18424944Y-12574460D02*
X18405896Y-12583984D01*
X18405896Y-12583984D02*
X18386848Y-12583984D01*
X18386848Y-12583984D02*
X18367801Y-12574460D01*
X18367801Y-12574460D02*
X18358277Y-12564936D01*
X18358277Y-12564936D02*
X18348753Y-12545888D01*
X18348753Y-12545888D02*
X18339229Y-12507793D01*
X18339229Y-12507793D02*
X18339229Y-12460174D01*
X18339229Y-12460174D02*
X18348753Y-12422079D01*
X18348753Y-12422079D02*
X18358277Y-12403031D01*
X18358277Y-12403031D02*
X18367801Y-12393508D01*
X18367801Y-12393508D02*
X18386848Y-12383984D01*
X18520182Y-12383984D02*
X18643991Y-12383984D01*
X18643991Y-12383984D02*
X18577325Y-12460174D01*
X18577325Y-12460174D02*
X18605896Y-12460174D01*
X18605896Y-12460174D02*
X18624944Y-12469698D01*
X18624944Y-12469698D02*
X18634468Y-12479222D01*
X18634468Y-12479222D02*
X18643991Y-12498269D01*
X18643991Y-12498269D02*
X18643991Y-12545888D01*
X18643991Y-12545888D02*
X18634468Y-12564936D01*
X18634468Y-12564936D02*
X18624944Y-12574460D01*
X18624944Y-12574460D02*
X18605896Y-12583984D01*
X18605896Y-12583984D02*
X18548753Y-12583984D01*
X18548753Y-12583984D02*
X18529706Y-12574460D01*
X18529706Y-12574460D02*
X18520182Y-12564936D01*
X18834468Y-12583984D02*
X18720182Y-12583984D01*
X18777325Y-12583984D02*
X18777325Y-12383984D01*
X18777325Y-12383984D02*
X18758277Y-12412555D01*
X18758277Y-12412555D02*
X18739229Y-12431603D01*
X18739229Y-12431603D02*
X18720182Y-12441127D01*
X19015420Y-12383984D02*
X18920182Y-12383984D01*
X18920182Y-12383984D02*
X18910658Y-12479222D01*
X18910658Y-12479222D02*
X18920182Y-12469698D01*
X18920182Y-12469698D02*
X18939229Y-12460174D01*
X18939229Y-12460174D02*
X18986849Y-12460174D01*
X18986849Y-12460174D02*
X19005896Y-12469698D01*
X19005896Y-12469698D02*
X19015420Y-12479222D01*
X19015420Y-12479222D02*
X19024944Y-12498269D01*
X19024944Y-12498269D02*
X19024944Y-12545888D01*
X19024944Y-12545888D02*
X19015420Y-12564936D01*
X19015420Y-12564936D02*
X19005896Y-12574460D01*
X19005896Y-12574460D02*
X18986849Y-12583984D01*
X18986849Y-12583984D02*
X18939229Y-12583984D01*
X18939229Y-12583984D02*
X18920182Y-12574460D01*
X18920182Y-12574460D02*
X18910658Y-12564936D01*
X19101134Y-12383984D02*
X19101134Y-12422079D01*
X19177325Y-12383984D02*
X19177325Y-12422079D01*
X19472563Y-12660174D02*
X19463039Y-12650650D01*
X19463039Y-12650650D02*
X19443991Y-12622079D01*
X19443991Y-12622079D02*
X19434468Y-12603031D01*
X19434468Y-12603031D02*
X19424944Y-12574460D01*
X19424944Y-12574460D02*
X19415420Y-12526841D01*
X19415420Y-12526841D02*
X19415420Y-12488746D01*
X19415420Y-12488746D02*
X19424944Y-12441127D01*
X19424944Y-12441127D02*
X19434468Y-12412555D01*
X19434468Y-12412555D02*
X19443991Y-12393508D01*
X19443991Y-12393508D02*
X19463039Y-12364936D01*
X19463039Y-12364936D02*
X19472563Y-12355412D01*
X19539230Y-12403031D02*
X19548753Y-12393508D01*
X19548753Y-12393508D02*
X19567801Y-12383984D01*
X19567801Y-12383984D02*
X19615420Y-12383984D01*
X19615420Y-12383984D02*
X19634468Y-12393508D01*
X19634468Y-12393508D02*
X19643991Y-12403031D01*
X19643991Y-12403031D02*
X19653515Y-12422079D01*
X19653515Y-12422079D02*
X19653515Y-12441127D01*
X19653515Y-12441127D02*
X19643991Y-12469698D01*
X19643991Y-12469698D02*
X19529706Y-12583984D01*
X19529706Y-12583984D02*
X19653515Y-12583984D01*
X19824944Y-12450650D02*
X19824944Y-12583984D01*
X19777325Y-12374460D02*
X19729706Y-12517317D01*
X19729706Y-12517317D02*
X19853515Y-12517317D01*
X20082087Y-12583984D02*
X20082087Y-12383984D01*
X20167801Y-12583984D02*
X20167801Y-12479222D01*
X20167801Y-12479222D02*
X20158277Y-12460174D01*
X20158277Y-12460174D02*
X20139230Y-12450650D01*
X20139230Y-12450650D02*
X20110658Y-12450650D01*
X20110658Y-12450650D02*
X20091611Y-12460174D01*
X20091611Y-12460174D02*
X20082087Y-12469698D01*
X20291611Y-12583984D02*
X20272563Y-12574460D01*
X20272563Y-12574460D02*
X20263039Y-12564936D01*
X20263039Y-12564936D02*
X20253515Y-12545888D01*
X20253515Y-12545888D02*
X20253515Y-12488746D01*
X20253515Y-12488746D02*
X20263039Y-12469698D01*
X20263039Y-12469698D02*
X20272563Y-12460174D01*
X20272563Y-12460174D02*
X20291611Y-12450650D01*
X20291611Y-12450650D02*
X20320182Y-12450650D01*
X20320182Y-12450650D02*
X20339230Y-12460174D01*
X20339230Y-12460174D02*
X20348753Y-12469698D01*
X20348753Y-12469698D02*
X20358277Y-12488746D01*
X20358277Y-12488746D02*
X20358277Y-12545888D01*
X20358277Y-12545888D02*
X20348753Y-12564936D01*
X20348753Y-12564936D02*
X20339230Y-12574460D01*
X20339230Y-12574460D02*
X20320182Y-12583984D01*
X20320182Y-12583984D02*
X20291611Y-12583984D01*
X20472563Y-12583984D02*
X20453515Y-12574460D01*
X20453515Y-12574460D02*
X20443992Y-12555412D01*
X20443992Y-12555412D02*
X20443992Y-12383984D01*
X20624944Y-12574460D02*
X20605896Y-12583984D01*
X20605896Y-12583984D02*
X20567801Y-12583984D01*
X20567801Y-12583984D02*
X20548753Y-12574460D01*
X20548753Y-12574460D02*
X20539230Y-12555412D01*
X20539230Y-12555412D02*
X20539230Y-12479222D01*
X20539230Y-12479222D02*
X20548753Y-12460174D01*
X20548753Y-12460174D02*
X20567801Y-12450650D01*
X20567801Y-12450650D02*
X20605896Y-12450650D01*
X20605896Y-12450650D02*
X20624944Y-12460174D01*
X20624944Y-12460174D02*
X20634468Y-12479222D01*
X20634468Y-12479222D02*
X20634468Y-12498269D01*
X20634468Y-12498269D02*
X20539230Y-12517317D01*
X20710658Y-12574460D02*
X20729706Y-12583984D01*
X20729706Y-12583984D02*
X20767801Y-12583984D01*
X20767801Y-12583984D02*
X20786849Y-12574460D01*
X20786849Y-12574460D02*
X20796373Y-12555412D01*
X20796373Y-12555412D02*
X20796373Y-12545888D01*
X20796373Y-12545888D02*
X20786849Y-12526841D01*
X20786849Y-12526841D02*
X20767801Y-12517317D01*
X20767801Y-12517317D02*
X20739230Y-12517317D01*
X20739230Y-12517317D02*
X20720182Y-12507793D01*
X20720182Y-12507793D02*
X20710658Y-12488746D01*
X20710658Y-12488746D02*
X20710658Y-12479222D01*
X20710658Y-12479222D02*
X20720182Y-12460174D01*
X20720182Y-12460174D02*
X20739230Y-12450650D01*
X20739230Y-12450650D02*
X20767801Y-12450650D01*
X20767801Y-12450650D02*
X20786849Y-12460174D01*
X20863039Y-12660174D02*
X20872563Y-12650650D01*
X20872563Y-12650650D02*
X20891611Y-12622079D01*
X20891611Y-12622079D02*
X20901134Y-12603031D01*
X20901134Y-12603031D02*
X20910658Y-12574460D01*
X20910658Y-12574460D02*
X20920182Y-12526841D01*
X20920182Y-12526841D02*
X20920182Y-12488746D01*
X20920182Y-12488746D02*
X20910658Y-12441127D01*
X20910658Y-12441127D02*
X20901134Y-12412555D01*
X20901134Y-12412555D02*
X20891611Y-12393508D01*
X20891611Y-12393508D02*
X20872563Y-12364936D01*
X20872563Y-12364936D02*
X20863039Y-12355412D01*
D12*
X15897500Y-12756500D02*
G75*
G02*
X15807500Y-12756500I-45000J0D01*
G01*
X15807500Y-12756500D02*
G75*
G02*
X15897500Y-12756500I45000J0D01*
G01*
D11*
X16196372Y-12647984D02*
X16215420Y-12647984D01*
X16215420Y-12647984D02*
X16234467Y-12657508D01*
X16234467Y-12657508D02*
X16243991Y-12667031D01*
X16243991Y-12667031D02*
X16253515Y-12686079D01*
X16253515Y-12686079D02*
X16263039Y-12724174D01*
X16263039Y-12724174D02*
X16263039Y-12771793D01*
X16263039Y-12771793D02*
X16253515Y-12809888D01*
X16253515Y-12809888D02*
X16243991Y-12828936D01*
X16243991Y-12828936D02*
X16234467Y-12838460D01*
X16234467Y-12838460D02*
X16215420Y-12847984D01*
X16215420Y-12847984D02*
X16196372Y-12847984D01*
X16196372Y-12847984D02*
X16177324Y-12838460D01*
X16177324Y-12838460D02*
X16167801Y-12828936D01*
X16167801Y-12828936D02*
X16158277Y-12809888D01*
X16158277Y-12809888D02*
X16148753Y-12771793D01*
X16148753Y-12771793D02*
X16148753Y-12724174D01*
X16148753Y-12724174D02*
X16158277Y-12686079D01*
X16158277Y-12686079D02*
X16167801Y-12667031D01*
X16167801Y-12667031D02*
X16177324Y-12657508D01*
X16177324Y-12657508D02*
X16196372Y-12647984D01*
X16348753Y-12828936D02*
X16358277Y-12838460D01*
X16358277Y-12838460D02*
X16348753Y-12847984D01*
X16348753Y-12847984D02*
X16339229Y-12838460D01*
X16339229Y-12838460D02*
X16348753Y-12828936D01*
X16348753Y-12828936D02*
X16348753Y-12847984D01*
X16453515Y-12847984D02*
X16491610Y-12847984D01*
X16491610Y-12847984D02*
X16510658Y-12838460D01*
X16510658Y-12838460D02*
X16520182Y-12828936D01*
X16520182Y-12828936D02*
X16539229Y-12800365D01*
X16539229Y-12800365D02*
X16548753Y-12762269D01*
X16548753Y-12762269D02*
X16548753Y-12686079D01*
X16548753Y-12686079D02*
X16539229Y-12667031D01*
X16539229Y-12667031D02*
X16529705Y-12657508D01*
X16529705Y-12657508D02*
X16510658Y-12647984D01*
X16510658Y-12647984D02*
X16472562Y-12647984D01*
X16472562Y-12647984D02*
X16453515Y-12657508D01*
X16453515Y-12657508D02*
X16443991Y-12667031D01*
X16443991Y-12667031D02*
X16434467Y-12686079D01*
X16434467Y-12686079D02*
X16434467Y-12733698D01*
X16434467Y-12733698D02*
X16443991Y-12752746D01*
X16443991Y-12752746D02*
X16453515Y-12762269D01*
X16453515Y-12762269D02*
X16472562Y-12771793D01*
X16472562Y-12771793D02*
X16510658Y-12771793D01*
X16510658Y-12771793D02*
X16529705Y-12762269D01*
X16529705Y-12762269D02*
X16539229Y-12752746D01*
X16539229Y-12752746D02*
X16548753Y-12733698D01*
X16672562Y-12647984D02*
X16691610Y-12647984D01*
X16691610Y-12647984D02*
X16710658Y-12657508D01*
X16710658Y-12657508D02*
X16720182Y-12667031D01*
X16720182Y-12667031D02*
X16729705Y-12686079D01*
X16729705Y-12686079D02*
X16739229Y-12724174D01*
X16739229Y-12724174D02*
X16739229Y-12771793D01*
X16739229Y-12771793D02*
X16729705Y-12809888D01*
X16729705Y-12809888D02*
X16720182Y-12828936D01*
X16720182Y-12828936D02*
X16710658Y-12838460D01*
X16710658Y-12838460D02*
X16691610Y-12847984D01*
X16691610Y-12847984D02*
X16672562Y-12847984D01*
X16672562Y-12847984D02*
X16653515Y-12838460D01*
X16653515Y-12838460D02*
X16643991Y-12828936D01*
X16643991Y-12828936D02*
X16634467Y-12809888D01*
X16634467Y-12809888D02*
X16624943Y-12771793D01*
X16624943Y-12771793D02*
X16624943Y-12724174D01*
X16624943Y-12724174D02*
X16634467Y-12686079D01*
X16634467Y-12686079D02*
X16643991Y-12667031D01*
X16643991Y-12667031D02*
X16653515Y-12657508D01*
X16653515Y-12657508D02*
X16672562Y-12647984D01*
X16863039Y-12647984D02*
X16882086Y-12647984D01*
X16882086Y-12647984D02*
X16901134Y-12657508D01*
X16901134Y-12657508D02*
X16910658Y-12667031D01*
X16910658Y-12667031D02*
X16920182Y-12686079D01*
X16920182Y-12686079D02*
X16929705Y-12724174D01*
X16929705Y-12724174D02*
X16929705Y-12771793D01*
X16929705Y-12771793D02*
X16920182Y-12809888D01*
X16920182Y-12809888D02*
X16910658Y-12828936D01*
X16910658Y-12828936D02*
X16901134Y-12838460D01*
X16901134Y-12838460D02*
X16882086Y-12847984D01*
X16882086Y-12847984D02*
X16863039Y-12847984D01*
X16863039Y-12847984D02*
X16843991Y-12838460D01*
X16843991Y-12838460D02*
X16834467Y-12828936D01*
X16834467Y-12828936D02*
X16824944Y-12809888D01*
X16824944Y-12809888D02*
X16815420Y-12771793D01*
X16815420Y-12771793D02*
X16815420Y-12724174D01*
X16815420Y-12724174D02*
X16824944Y-12686079D01*
X16824944Y-12686079D02*
X16834467Y-12667031D01*
X16834467Y-12667031D02*
X16843991Y-12657508D01*
X16843991Y-12657508D02*
X16863039Y-12647984D01*
X17015420Y-12847984D02*
X17015420Y-12714650D01*
X17015420Y-12733698D02*
X17024944Y-12724174D01*
X17024944Y-12724174D02*
X17043991Y-12714650D01*
X17043991Y-12714650D02*
X17072563Y-12714650D01*
X17072563Y-12714650D02*
X17091610Y-12724174D01*
X17091610Y-12724174D02*
X17101134Y-12743222D01*
X17101134Y-12743222D02*
X17101134Y-12847984D01*
X17101134Y-12743222D02*
X17110658Y-12724174D01*
X17110658Y-12724174D02*
X17129705Y-12714650D01*
X17129705Y-12714650D02*
X17158277Y-12714650D01*
X17158277Y-12714650D02*
X17177325Y-12724174D01*
X17177325Y-12724174D02*
X17186848Y-12743222D01*
X17186848Y-12743222D02*
X17186848Y-12847984D01*
X17282086Y-12847984D02*
X17282086Y-12714650D01*
X17282086Y-12733698D02*
X17291610Y-12724174D01*
X17291610Y-12724174D02*
X17310658Y-12714650D01*
X17310658Y-12714650D02*
X17339229Y-12714650D01*
X17339229Y-12714650D02*
X17358277Y-12724174D01*
X17358277Y-12724174D02*
X17367801Y-12743222D01*
X17367801Y-12743222D02*
X17367801Y-12847984D01*
X17367801Y-12743222D02*
X17377325Y-12724174D01*
X17377325Y-12724174D02*
X17396372Y-12714650D01*
X17396372Y-12714650D02*
X17424944Y-12714650D01*
X17424944Y-12714650D02*
X17443991Y-12724174D01*
X17443991Y-12724174D02*
X17453515Y-12743222D01*
X17453515Y-12743222D02*
X17453515Y-12847984D01*
X17843991Y-12638460D02*
X17672563Y-12895603D01*
X18101134Y-12647984D02*
X18120182Y-12647984D01*
X18120182Y-12647984D02*
X18139229Y-12657508D01*
X18139229Y-12657508D02*
X18148753Y-12667031D01*
X18148753Y-12667031D02*
X18158277Y-12686079D01*
X18158277Y-12686079D02*
X18167801Y-12724174D01*
X18167801Y-12724174D02*
X18167801Y-12771793D01*
X18167801Y-12771793D02*
X18158277Y-12809888D01*
X18158277Y-12809888D02*
X18148753Y-12828936D01*
X18148753Y-12828936D02*
X18139229Y-12838460D01*
X18139229Y-12838460D02*
X18120182Y-12847984D01*
X18120182Y-12847984D02*
X18101134Y-12847984D01*
X18101134Y-12847984D02*
X18082087Y-12838460D01*
X18082087Y-12838460D02*
X18072563Y-12828936D01*
X18072563Y-12828936D02*
X18063039Y-12809888D01*
X18063039Y-12809888D02*
X18053515Y-12771793D01*
X18053515Y-12771793D02*
X18053515Y-12724174D01*
X18053515Y-12724174D02*
X18063039Y-12686079D01*
X18063039Y-12686079D02*
X18072563Y-12667031D01*
X18072563Y-12667031D02*
X18082087Y-12657508D01*
X18082087Y-12657508D02*
X18101134Y-12647984D01*
X18253515Y-12828936D02*
X18263039Y-12838460D01*
X18263039Y-12838460D02*
X18253515Y-12847984D01*
X18253515Y-12847984D02*
X18243991Y-12838460D01*
X18243991Y-12838460D02*
X18253515Y-12828936D01*
X18253515Y-12828936D02*
X18253515Y-12847984D01*
X18386848Y-12647984D02*
X18405896Y-12647984D01*
X18405896Y-12647984D02*
X18424944Y-12657508D01*
X18424944Y-12657508D02*
X18434468Y-12667031D01*
X18434468Y-12667031D02*
X18443991Y-12686079D01*
X18443991Y-12686079D02*
X18453515Y-12724174D01*
X18453515Y-12724174D02*
X18453515Y-12771793D01*
X18453515Y-12771793D02*
X18443991Y-12809888D01*
X18443991Y-12809888D02*
X18434468Y-12828936D01*
X18434468Y-12828936D02*
X18424944Y-12838460D01*
X18424944Y-12838460D02*
X18405896Y-12847984D01*
X18405896Y-12847984D02*
X18386848Y-12847984D01*
X18386848Y-12847984D02*
X18367801Y-12838460D01*
X18367801Y-12838460D02*
X18358277Y-12828936D01*
X18358277Y-12828936D02*
X18348753Y-12809888D01*
X18348753Y-12809888D02*
X18339229Y-12771793D01*
X18339229Y-12771793D02*
X18339229Y-12724174D01*
X18339229Y-12724174D02*
X18348753Y-12686079D01*
X18348753Y-12686079D02*
X18358277Y-12667031D01*
X18358277Y-12667031D02*
X18367801Y-12657508D01*
X18367801Y-12657508D02*
X18386848Y-12647984D01*
X18520182Y-12647984D02*
X18643991Y-12647984D01*
X18643991Y-12647984D02*
X18577325Y-12724174D01*
X18577325Y-12724174D02*
X18605896Y-12724174D01*
X18605896Y-12724174D02*
X18624944Y-12733698D01*
X18624944Y-12733698D02*
X18634468Y-12743222D01*
X18634468Y-12743222D02*
X18643991Y-12762269D01*
X18643991Y-12762269D02*
X18643991Y-12809888D01*
X18643991Y-12809888D02*
X18634468Y-12828936D01*
X18634468Y-12828936D02*
X18624944Y-12838460D01*
X18624944Y-12838460D02*
X18605896Y-12847984D01*
X18605896Y-12847984D02*
X18548753Y-12847984D01*
X18548753Y-12847984D02*
X18529706Y-12838460D01*
X18529706Y-12838460D02*
X18520182Y-12828936D01*
X18824944Y-12647984D02*
X18729706Y-12647984D01*
X18729706Y-12647984D02*
X18720182Y-12743222D01*
X18720182Y-12743222D02*
X18729706Y-12733698D01*
X18729706Y-12733698D02*
X18748753Y-12724174D01*
X18748753Y-12724174D02*
X18796372Y-12724174D01*
X18796372Y-12724174D02*
X18815420Y-12733698D01*
X18815420Y-12733698D02*
X18824944Y-12743222D01*
X18824944Y-12743222D02*
X18834468Y-12762269D01*
X18834468Y-12762269D02*
X18834468Y-12809888D01*
X18834468Y-12809888D02*
X18824944Y-12828936D01*
X18824944Y-12828936D02*
X18815420Y-12838460D01*
X18815420Y-12838460D02*
X18796372Y-12847984D01*
X18796372Y-12847984D02*
X18748753Y-12847984D01*
X18748753Y-12847984D02*
X18729706Y-12838460D01*
X18729706Y-12838460D02*
X18720182Y-12828936D01*
X19005896Y-12714650D02*
X19005896Y-12847984D01*
X18958277Y-12638460D02*
X18910658Y-12781317D01*
X18910658Y-12781317D02*
X19034468Y-12781317D01*
X19101134Y-12647984D02*
X19101134Y-12686079D01*
X19177325Y-12647984D02*
X19177325Y-12686079D01*
X19472563Y-12924174D02*
X19463039Y-12914650D01*
X19463039Y-12914650D02*
X19443991Y-12886079D01*
X19443991Y-12886079D02*
X19434468Y-12867031D01*
X19434468Y-12867031D02*
X19424944Y-12838460D01*
X19424944Y-12838460D02*
X19415420Y-12790841D01*
X19415420Y-12790841D02*
X19415420Y-12752746D01*
X19415420Y-12752746D02*
X19424944Y-12705127D01*
X19424944Y-12705127D02*
X19434468Y-12676555D01*
X19434468Y-12676555D02*
X19443991Y-12657508D01*
X19443991Y-12657508D02*
X19463039Y-12628936D01*
X19463039Y-12628936D02*
X19472563Y-12619412D01*
X19539230Y-12667031D02*
X19548753Y-12657508D01*
X19548753Y-12657508D02*
X19567801Y-12647984D01*
X19567801Y-12647984D02*
X19615420Y-12647984D01*
X19615420Y-12647984D02*
X19634468Y-12657508D01*
X19634468Y-12657508D02*
X19643991Y-12667031D01*
X19643991Y-12667031D02*
X19653515Y-12686079D01*
X19653515Y-12686079D02*
X19653515Y-12705127D01*
X19653515Y-12705127D02*
X19643991Y-12733698D01*
X19643991Y-12733698D02*
X19529706Y-12847984D01*
X19529706Y-12847984D02*
X19653515Y-12847984D01*
X19891611Y-12847984D02*
X19891611Y-12647984D01*
X19977325Y-12847984D02*
X19977325Y-12743222D01*
X19977325Y-12743222D02*
X19967801Y-12724174D01*
X19967801Y-12724174D02*
X19948753Y-12714650D01*
X19948753Y-12714650D02*
X19920182Y-12714650D01*
X19920182Y-12714650D02*
X19901134Y-12724174D01*
X19901134Y-12724174D02*
X19891611Y-12733698D01*
X20101134Y-12847984D02*
X20082087Y-12838460D01*
X20082087Y-12838460D02*
X20072563Y-12828936D01*
X20072563Y-12828936D02*
X20063039Y-12809888D01*
X20063039Y-12809888D02*
X20063039Y-12752746D01*
X20063039Y-12752746D02*
X20072563Y-12733698D01*
X20072563Y-12733698D02*
X20082087Y-12724174D01*
X20082087Y-12724174D02*
X20101134Y-12714650D01*
X20101134Y-12714650D02*
X20129706Y-12714650D01*
X20129706Y-12714650D02*
X20148753Y-12724174D01*
X20148753Y-12724174D02*
X20158277Y-12733698D01*
X20158277Y-12733698D02*
X20167801Y-12752746D01*
X20167801Y-12752746D02*
X20167801Y-12809888D01*
X20167801Y-12809888D02*
X20158277Y-12828936D01*
X20158277Y-12828936D02*
X20148753Y-12838460D01*
X20148753Y-12838460D02*
X20129706Y-12847984D01*
X20129706Y-12847984D02*
X20101134Y-12847984D01*
X20282087Y-12847984D02*
X20263039Y-12838460D01*
X20263039Y-12838460D02*
X20253515Y-12819412D01*
X20253515Y-12819412D02*
X20253515Y-12647984D01*
X20434468Y-12838460D02*
X20415420Y-12847984D01*
X20415420Y-12847984D02*
X20377325Y-12847984D01*
X20377325Y-12847984D02*
X20358277Y-12838460D01*
X20358277Y-12838460D02*
X20348753Y-12819412D01*
X20348753Y-12819412D02*
X20348753Y-12743222D01*
X20348753Y-12743222D02*
X20358277Y-12724174D01*
X20358277Y-12724174D02*
X20377325Y-12714650D01*
X20377325Y-12714650D02*
X20415420Y-12714650D01*
X20415420Y-12714650D02*
X20434468Y-12724174D01*
X20434468Y-12724174D02*
X20443992Y-12743222D01*
X20443992Y-12743222D02*
X20443992Y-12762269D01*
X20443992Y-12762269D02*
X20348753Y-12781317D01*
X20520182Y-12838460D02*
X20539230Y-12847984D01*
X20539230Y-12847984D02*
X20577325Y-12847984D01*
X20577325Y-12847984D02*
X20596373Y-12838460D01*
X20596373Y-12838460D02*
X20605896Y-12819412D01*
X20605896Y-12819412D02*
X20605896Y-12809888D01*
X20605896Y-12809888D02*
X20596373Y-12790841D01*
X20596373Y-12790841D02*
X20577325Y-12781317D01*
X20577325Y-12781317D02*
X20548753Y-12781317D01*
X20548753Y-12781317D02*
X20529706Y-12771793D01*
X20529706Y-12771793D02*
X20520182Y-12752746D01*
X20520182Y-12752746D02*
X20520182Y-12743222D01*
X20520182Y-12743222D02*
X20529706Y-12724174D01*
X20529706Y-12724174D02*
X20548753Y-12714650D01*
X20548753Y-12714650D02*
X20577325Y-12714650D01*
X20577325Y-12714650D02*
X20596373Y-12724174D01*
X20672563Y-12924174D02*
X20682087Y-12914650D01*
X20682087Y-12914650D02*
X20701134Y-12886079D01*
X20701134Y-12886079D02*
X20710658Y-12867031D01*
X20710658Y-12867031D02*
X20720182Y-12838460D01*
X20720182Y-12838460D02*
X20729706Y-12790841D01*
X20729706Y-12790841D02*
X20729706Y-12752746D01*
X20729706Y-12752746D02*
X20720182Y-12705127D01*
X20720182Y-12705127D02*
X20710658Y-12676555D01*
X20710658Y-12676555D02*
X20701134Y-12657508D01*
X20701134Y-12657508D02*
X20682087Y-12628936D01*
X20682087Y-12628936D02*
X20672563Y-12619412D01*
D12*
X15847500Y-12970500D02*
X15847500Y-13070500D01*
X15797500Y-13020500D02*
X15897500Y-13020500D01*
D11*
X16263039Y-13111984D02*
X16148753Y-13111984D01*
X16205896Y-13111984D02*
X16205896Y-12911984D01*
X16205896Y-12911984D02*
X16186848Y-12940555D01*
X16186848Y-12940555D02*
X16167801Y-12959603D01*
X16167801Y-12959603D02*
X16148753Y-12969127D01*
X16348753Y-13092936D02*
X16358277Y-13102460D01*
X16358277Y-13102460D02*
X16348753Y-13111984D01*
X16348753Y-13111984D02*
X16339229Y-13102460D01*
X16339229Y-13102460D02*
X16348753Y-13092936D01*
X16348753Y-13092936D02*
X16348753Y-13111984D01*
X16482086Y-12911984D02*
X16501134Y-12911984D01*
X16501134Y-12911984D02*
X16520182Y-12921508D01*
X16520182Y-12921508D02*
X16529705Y-12931031D01*
X16529705Y-12931031D02*
X16539229Y-12950079D01*
X16539229Y-12950079D02*
X16548753Y-12988174D01*
X16548753Y-12988174D02*
X16548753Y-13035793D01*
X16548753Y-13035793D02*
X16539229Y-13073888D01*
X16539229Y-13073888D02*
X16529705Y-13092936D01*
X16529705Y-13092936D02*
X16520182Y-13102460D01*
X16520182Y-13102460D02*
X16501134Y-13111984D01*
X16501134Y-13111984D02*
X16482086Y-13111984D01*
X16482086Y-13111984D02*
X16463039Y-13102460D01*
X16463039Y-13102460D02*
X16453515Y-13092936D01*
X16453515Y-13092936D02*
X16443991Y-13073888D01*
X16443991Y-13073888D02*
X16434467Y-13035793D01*
X16434467Y-13035793D02*
X16434467Y-12988174D01*
X16434467Y-12988174D02*
X16443991Y-12950079D01*
X16443991Y-12950079D02*
X16453515Y-12931031D01*
X16453515Y-12931031D02*
X16463039Y-12921508D01*
X16463039Y-12921508D02*
X16482086Y-12911984D01*
X16672562Y-12911984D02*
X16691610Y-12911984D01*
X16691610Y-12911984D02*
X16710658Y-12921508D01*
X16710658Y-12921508D02*
X16720182Y-12931031D01*
X16720182Y-12931031D02*
X16729705Y-12950079D01*
X16729705Y-12950079D02*
X16739229Y-12988174D01*
X16739229Y-12988174D02*
X16739229Y-13035793D01*
X16739229Y-13035793D02*
X16729705Y-13073888D01*
X16729705Y-13073888D02*
X16720182Y-13092936D01*
X16720182Y-13092936D02*
X16710658Y-13102460D01*
X16710658Y-13102460D02*
X16691610Y-13111984D01*
X16691610Y-13111984D02*
X16672562Y-13111984D01*
X16672562Y-13111984D02*
X16653515Y-13102460D01*
X16653515Y-13102460D02*
X16643991Y-13092936D01*
X16643991Y-13092936D02*
X16634467Y-13073888D01*
X16634467Y-13073888D02*
X16624943Y-13035793D01*
X16624943Y-13035793D02*
X16624943Y-12988174D01*
X16624943Y-12988174D02*
X16634467Y-12950079D01*
X16634467Y-12950079D02*
X16643991Y-12931031D01*
X16643991Y-12931031D02*
X16653515Y-12921508D01*
X16653515Y-12921508D02*
X16672562Y-12911984D01*
X16863039Y-12911984D02*
X16882086Y-12911984D01*
X16882086Y-12911984D02*
X16901134Y-12921508D01*
X16901134Y-12921508D02*
X16910658Y-12931031D01*
X16910658Y-12931031D02*
X16920182Y-12950079D01*
X16920182Y-12950079D02*
X16929705Y-12988174D01*
X16929705Y-12988174D02*
X16929705Y-13035793D01*
X16929705Y-13035793D02*
X16920182Y-13073888D01*
X16920182Y-13073888D02*
X16910658Y-13092936D01*
X16910658Y-13092936D02*
X16901134Y-13102460D01*
X16901134Y-13102460D02*
X16882086Y-13111984D01*
X16882086Y-13111984D02*
X16863039Y-13111984D01*
X16863039Y-13111984D02*
X16843991Y-13102460D01*
X16843991Y-13102460D02*
X16834467Y-13092936D01*
X16834467Y-13092936D02*
X16824944Y-13073888D01*
X16824944Y-13073888D02*
X16815420Y-13035793D01*
X16815420Y-13035793D02*
X16815420Y-12988174D01*
X16815420Y-12988174D02*
X16824944Y-12950079D01*
X16824944Y-12950079D02*
X16834467Y-12931031D01*
X16834467Y-12931031D02*
X16843991Y-12921508D01*
X16843991Y-12921508D02*
X16863039Y-12911984D01*
X17015420Y-13111984D02*
X17015420Y-12978650D01*
X17015420Y-12997698D02*
X17024944Y-12988174D01*
X17024944Y-12988174D02*
X17043991Y-12978650D01*
X17043991Y-12978650D02*
X17072563Y-12978650D01*
X17072563Y-12978650D02*
X17091610Y-12988174D01*
X17091610Y-12988174D02*
X17101134Y-13007222D01*
X17101134Y-13007222D02*
X17101134Y-13111984D01*
X17101134Y-13007222D02*
X17110658Y-12988174D01*
X17110658Y-12988174D02*
X17129705Y-12978650D01*
X17129705Y-12978650D02*
X17158277Y-12978650D01*
X17158277Y-12978650D02*
X17177325Y-12988174D01*
X17177325Y-12988174D02*
X17186848Y-13007222D01*
X17186848Y-13007222D02*
X17186848Y-13111984D01*
X17282086Y-13111984D02*
X17282086Y-12978650D01*
X17282086Y-12997698D02*
X17291610Y-12988174D01*
X17291610Y-12988174D02*
X17310658Y-12978650D01*
X17310658Y-12978650D02*
X17339229Y-12978650D01*
X17339229Y-12978650D02*
X17358277Y-12988174D01*
X17358277Y-12988174D02*
X17367801Y-13007222D01*
X17367801Y-13007222D02*
X17367801Y-13111984D01*
X17367801Y-13007222D02*
X17377325Y-12988174D01*
X17377325Y-12988174D02*
X17396372Y-12978650D01*
X17396372Y-12978650D02*
X17424944Y-12978650D01*
X17424944Y-12978650D02*
X17443991Y-12988174D01*
X17443991Y-12988174D02*
X17453515Y-13007222D01*
X17453515Y-13007222D02*
X17453515Y-13111984D01*
X17843991Y-12902460D02*
X17672563Y-13159603D01*
X18101134Y-12911984D02*
X18120182Y-12911984D01*
X18120182Y-12911984D02*
X18139229Y-12921508D01*
X18139229Y-12921508D02*
X18148753Y-12931031D01*
X18148753Y-12931031D02*
X18158277Y-12950079D01*
X18158277Y-12950079D02*
X18167801Y-12988174D01*
X18167801Y-12988174D02*
X18167801Y-13035793D01*
X18167801Y-13035793D02*
X18158277Y-13073888D01*
X18158277Y-13073888D02*
X18148753Y-13092936D01*
X18148753Y-13092936D02*
X18139229Y-13102460D01*
X18139229Y-13102460D02*
X18120182Y-13111984D01*
X18120182Y-13111984D02*
X18101134Y-13111984D01*
X18101134Y-13111984D02*
X18082087Y-13102460D01*
X18082087Y-13102460D02*
X18072563Y-13092936D01*
X18072563Y-13092936D02*
X18063039Y-13073888D01*
X18063039Y-13073888D02*
X18053515Y-13035793D01*
X18053515Y-13035793D02*
X18053515Y-12988174D01*
X18053515Y-12988174D02*
X18063039Y-12950079D01*
X18063039Y-12950079D02*
X18072563Y-12931031D01*
X18072563Y-12931031D02*
X18082087Y-12921508D01*
X18082087Y-12921508D02*
X18101134Y-12911984D01*
X18253515Y-13092936D02*
X18263039Y-13102460D01*
X18263039Y-13102460D02*
X18253515Y-13111984D01*
X18253515Y-13111984D02*
X18243991Y-13102460D01*
X18243991Y-13102460D02*
X18253515Y-13092936D01*
X18253515Y-13092936D02*
X18253515Y-13111984D01*
X18386848Y-12911984D02*
X18405896Y-12911984D01*
X18405896Y-12911984D02*
X18424944Y-12921508D01*
X18424944Y-12921508D02*
X18434468Y-12931031D01*
X18434468Y-12931031D02*
X18443991Y-12950079D01*
X18443991Y-12950079D02*
X18453515Y-12988174D01*
X18453515Y-12988174D02*
X18453515Y-13035793D01*
X18453515Y-13035793D02*
X18443991Y-13073888D01*
X18443991Y-13073888D02*
X18434468Y-13092936D01*
X18434468Y-13092936D02*
X18424944Y-13102460D01*
X18424944Y-13102460D02*
X18405896Y-13111984D01*
X18405896Y-13111984D02*
X18386848Y-13111984D01*
X18386848Y-13111984D02*
X18367801Y-13102460D01*
X18367801Y-13102460D02*
X18358277Y-13092936D01*
X18358277Y-13092936D02*
X18348753Y-13073888D01*
X18348753Y-13073888D02*
X18339229Y-13035793D01*
X18339229Y-13035793D02*
X18339229Y-12988174D01*
X18339229Y-12988174D02*
X18348753Y-12950079D01*
X18348753Y-12950079D02*
X18358277Y-12931031D01*
X18358277Y-12931031D02*
X18367801Y-12921508D01*
X18367801Y-12921508D02*
X18386848Y-12911984D01*
X18520182Y-12911984D02*
X18643991Y-12911984D01*
X18643991Y-12911984D02*
X18577325Y-12988174D01*
X18577325Y-12988174D02*
X18605896Y-12988174D01*
X18605896Y-12988174D02*
X18624944Y-12997698D01*
X18624944Y-12997698D02*
X18634468Y-13007222D01*
X18634468Y-13007222D02*
X18643991Y-13026269D01*
X18643991Y-13026269D02*
X18643991Y-13073888D01*
X18643991Y-13073888D02*
X18634468Y-13092936D01*
X18634468Y-13092936D02*
X18624944Y-13102460D01*
X18624944Y-13102460D02*
X18605896Y-13111984D01*
X18605896Y-13111984D02*
X18548753Y-13111984D01*
X18548753Y-13111984D02*
X18529706Y-13102460D01*
X18529706Y-13102460D02*
X18520182Y-13092936D01*
X18739229Y-13111984D02*
X18777325Y-13111984D01*
X18777325Y-13111984D02*
X18796372Y-13102460D01*
X18796372Y-13102460D02*
X18805896Y-13092936D01*
X18805896Y-13092936D02*
X18824944Y-13064365D01*
X18824944Y-13064365D02*
X18834468Y-13026269D01*
X18834468Y-13026269D02*
X18834468Y-12950079D01*
X18834468Y-12950079D02*
X18824944Y-12931031D01*
X18824944Y-12931031D02*
X18815420Y-12921508D01*
X18815420Y-12921508D02*
X18796372Y-12911984D01*
X18796372Y-12911984D02*
X18758277Y-12911984D01*
X18758277Y-12911984D02*
X18739229Y-12921508D01*
X18739229Y-12921508D02*
X18729706Y-12931031D01*
X18729706Y-12931031D02*
X18720182Y-12950079D01*
X18720182Y-12950079D02*
X18720182Y-12997698D01*
X18720182Y-12997698D02*
X18729706Y-13016746D01*
X18729706Y-13016746D02*
X18739229Y-13026269D01*
X18739229Y-13026269D02*
X18758277Y-13035793D01*
X18758277Y-13035793D02*
X18796372Y-13035793D01*
X18796372Y-13035793D02*
X18815420Y-13026269D01*
X18815420Y-13026269D02*
X18824944Y-13016746D01*
X18824944Y-13016746D02*
X18834468Y-12997698D01*
X19005896Y-12978650D02*
X19005896Y-13111984D01*
X18958277Y-12902460D02*
X18910658Y-13045317D01*
X18910658Y-13045317D02*
X19034468Y-13045317D01*
X19101134Y-12911984D02*
X19101134Y-12950079D01*
X19177325Y-12911984D02*
X19177325Y-12950079D01*
X19472563Y-13188174D02*
X19463039Y-13178650D01*
X19463039Y-13178650D02*
X19443991Y-13150079D01*
X19443991Y-13150079D02*
X19434468Y-13131031D01*
X19434468Y-13131031D02*
X19424944Y-13102460D01*
X19424944Y-13102460D02*
X19415420Y-13054841D01*
X19415420Y-13054841D02*
X19415420Y-13016746D01*
X19415420Y-13016746D02*
X19424944Y-12969127D01*
X19424944Y-12969127D02*
X19434468Y-12940555D01*
X19434468Y-12940555D02*
X19443991Y-12921508D01*
X19443991Y-12921508D02*
X19463039Y-12892936D01*
X19463039Y-12892936D02*
X19472563Y-12883412D01*
X19653515Y-13111984D02*
X19539230Y-13111984D01*
X19596372Y-13111984D02*
X19596372Y-12911984D01*
X19596372Y-12911984D02*
X19577325Y-12940555D01*
X19577325Y-12940555D02*
X19558277Y-12959603D01*
X19558277Y-12959603D02*
X19539230Y-12969127D01*
X19843991Y-13111984D02*
X19729706Y-13111984D01*
X19786849Y-13111984D02*
X19786849Y-12911984D01*
X19786849Y-12911984D02*
X19767801Y-12940555D01*
X19767801Y-12940555D02*
X19748753Y-12959603D01*
X19748753Y-12959603D02*
X19729706Y-12969127D01*
X20082087Y-13111984D02*
X20082087Y-12911984D01*
X20167801Y-13111984D02*
X20167801Y-13007222D01*
X20167801Y-13007222D02*
X20158277Y-12988174D01*
X20158277Y-12988174D02*
X20139230Y-12978650D01*
X20139230Y-12978650D02*
X20110658Y-12978650D01*
X20110658Y-12978650D02*
X20091611Y-12988174D01*
X20091611Y-12988174D02*
X20082087Y-12997698D01*
X20291611Y-13111984D02*
X20272563Y-13102460D01*
X20272563Y-13102460D02*
X20263039Y-13092936D01*
X20263039Y-13092936D02*
X20253515Y-13073888D01*
X20253515Y-13073888D02*
X20253515Y-13016746D01*
X20253515Y-13016746D02*
X20263039Y-12997698D01*
X20263039Y-12997698D02*
X20272563Y-12988174D01*
X20272563Y-12988174D02*
X20291611Y-12978650D01*
X20291611Y-12978650D02*
X20320182Y-12978650D01*
X20320182Y-12978650D02*
X20339230Y-12988174D01*
X20339230Y-12988174D02*
X20348753Y-12997698D01*
X20348753Y-12997698D02*
X20358277Y-13016746D01*
X20358277Y-13016746D02*
X20358277Y-13073888D01*
X20358277Y-13073888D02*
X20348753Y-13092936D01*
X20348753Y-13092936D02*
X20339230Y-13102460D01*
X20339230Y-13102460D02*
X20320182Y-13111984D01*
X20320182Y-13111984D02*
X20291611Y-13111984D01*
X20472563Y-13111984D02*
X20453515Y-13102460D01*
X20453515Y-13102460D02*
X20443992Y-13083412D01*
X20443992Y-13083412D02*
X20443992Y-12911984D01*
X20624944Y-13102460D02*
X20605896Y-13111984D01*
X20605896Y-13111984D02*
X20567801Y-13111984D01*
X20567801Y-13111984D02*
X20548753Y-13102460D01*
X20548753Y-13102460D02*
X20539230Y-13083412D01*
X20539230Y-13083412D02*
X20539230Y-13007222D01*
X20539230Y-13007222D02*
X20548753Y-12988174D01*
X20548753Y-12988174D02*
X20567801Y-12978650D01*
X20567801Y-12978650D02*
X20605896Y-12978650D01*
X20605896Y-12978650D02*
X20624944Y-12988174D01*
X20624944Y-12988174D02*
X20634468Y-13007222D01*
X20634468Y-13007222D02*
X20634468Y-13026269D01*
X20634468Y-13026269D02*
X20539230Y-13045317D01*
X20710658Y-13102460D02*
X20729706Y-13111984D01*
X20729706Y-13111984D02*
X20767801Y-13111984D01*
X20767801Y-13111984D02*
X20786849Y-13102460D01*
X20786849Y-13102460D02*
X20796373Y-13083412D01*
X20796373Y-13083412D02*
X20796373Y-13073888D01*
X20796373Y-13073888D02*
X20786849Y-13054841D01*
X20786849Y-13054841D02*
X20767801Y-13045317D01*
X20767801Y-13045317D02*
X20739230Y-13045317D01*
X20739230Y-13045317D02*
X20720182Y-13035793D01*
X20720182Y-13035793D02*
X20710658Y-13016746D01*
X20710658Y-13016746D02*
X20710658Y-13007222D01*
X20710658Y-13007222D02*
X20720182Y-12988174D01*
X20720182Y-12988174D02*
X20739230Y-12978650D01*
X20739230Y-12978650D02*
X20767801Y-12978650D01*
X20767801Y-12978650D02*
X20786849Y-12988174D01*
X20863039Y-13188174D02*
X20872563Y-13178650D01*
X20872563Y-13178650D02*
X20891611Y-13150079D01*
X20891611Y-13150079D02*
X20901134Y-13131031D01*
X20901134Y-13131031D02*
X20910658Y-13102460D01*
X20910658Y-13102460D02*
X20920182Y-13054841D01*
X20920182Y-13054841D02*
X20920182Y-13016746D01*
X20920182Y-13016746D02*
X20910658Y-12969127D01*
X20910658Y-12969127D02*
X20901134Y-12940555D01*
X20901134Y-12940555D02*
X20891611Y-12921508D01*
X20891611Y-12921508D02*
X20872563Y-12892936D01*
X20872563Y-12892936D02*
X20863039Y-12883412D01*
D13*
X15881391Y-13323391D02*
X15881391Y-13245609D01*
X15803609Y-13245609D01*
X15803609Y-13323391D01*
X15881391Y-13323391D01*
D11*
X16263039Y-13375984D02*
X16148753Y-13375984D01*
X16205896Y-13375984D02*
X16205896Y-13175984D01*
X16205896Y-13175984D02*
X16186848Y-13204555D01*
X16186848Y-13204555D02*
X16167801Y-13223603D01*
X16167801Y-13223603D02*
X16148753Y-13233127D01*
X16348753Y-13356936D02*
X16358277Y-13366460D01*
X16358277Y-13366460D02*
X16348753Y-13375984D01*
X16348753Y-13375984D02*
X16339229Y-13366460D01*
X16339229Y-13366460D02*
X16348753Y-13356936D01*
X16348753Y-13356936D02*
X16348753Y-13375984D01*
X16548753Y-13375984D02*
X16434467Y-13375984D01*
X16491610Y-13375984D02*
X16491610Y-13175984D01*
X16491610Y-13175984D02*
X16472562Y-13204555D01*
X16472562Y-13204555D02*
X16453515Y-13223603D01*
X16453515Y-13223603D02*
X16434467Y-13233127D01*
X16672562Y-13175984D02*
X16691610Y-13175984D01*
X16691610Y-13175984D02*
X16710658Y-13185508D01*
X16710658Y-13185508D02*
X16720182Y-13195031D01*
X16720182Y-13195031D02*
X16729705Y-13214079D01*
X16729705Y-13214079D02*
X16739229Y-13252174D01*
X16739229Y-13252174D02*
X16739229Y-13299793D01*
X16739229Y-13299793D02*
X16729705Y-13337888D01*
X16729705Y-13337888D02*
X16720182Y-13356936D01*
X16720182Y-13356936D02*
X16710658Y-13366460D01*
X16710658Y-13366460D02*
X16691610Y-13375984D01*
X16691610Y-13375984D02*
X16672562Y-13375984D01*
X16672562Y-13375984D02*
X16653515Y-13366460D01*
X16653515Y-13366460D02*
X16643991Y-13356936D01*
X16643991Y-13356936D02*
X16634467Y-13337888D01*
X16634467Y-13337888D02*
X16624943Y-13299793D01*
X16624943Y-13299793D02*
X16624943Y-13252174D01*
X16624943Y-13252174D02*
X16634467Y-13214079D01*
X16634467Y-13214079D02*
X16643991Y-13195031D01*
X16643991Y-13195031D02*
X16653515Y-13185508D01*
X16653515Y-13185508D02*
X16672562Y-13175984D01*
X16863039Y-13175984D02*
X16882086Y-13175984D01*
X16882086Y-13175984D02*
X16901134Y-13185508D01*
X16901134Y-13185508D02*
X16910658Y-13195031D01*
X16910658Y-13195031D02*
X16920182Y-13214079D01*
X16920182Y-13214079D02*
X16929705Y-13252174D01*
X16929705Y-13252174D02*
X16929705Y-13299793D01*
X16929705Y-13299793D02*
X16920182Y-13337888D01*
X16920182Y-13337888D02*
X16910658Y-13356936D01*
X16910658Y-13356936D02*
X16901134Y-13366460D01*
X16901134Y-13366460D02*
X16882086Y-13375984D01*
X16882086Y-13375984D02*
X16863039Y-13375984D01*
X16863039Y-13375984D02*
X16843991Y-13366460D01*
X16843991Y-13366460D02*
X16834467Y-13356936D01*
X16834467Y-13356936D02*
X16824944Y-13337888D01*
X16824944Y-13337888D02*
X16815420Y-13299793D01*
X16815420Y-13299793D02*
X16815420Y-13252174D01*
X16815420Y-13252174D02*
X16824944Y-13214079D01*
X16824944Y-13214079D02*
X16834467Y-13195031D01*
X16834467Y-13195031D02*
X16843991Y-13185508D01*
X16843991Y-13185508D02*
X16863039Y-13175984D01*
X17015420Y-13375984D02*
X17015420Y-13242650D01*
X17015420Y-13261698D02*
X17024944Y-13252174D01*
X17024944Y-13252174D02*
X17043991Y-13242650D01*
X17043991Y-13242650D02*
X17072563Y-13242650D01*
X17072563Y-13242650D02*
X17091610Y-13252174D01*
X17091610Y-13252174D02*
X17101134Y-13271222D01*
X17101134Y-13271222D02*
X17101134Y-13375984D01*
X17101134Y-13271222D02*
X17110658Y-13252174D01*
X17110658Y-13252174D02*
X17129705Y-13242650D01*
X17129705Y-13242650D02*
X17158277Y-13242650D01*
X17158277Y-13242650D02*
X17177325Y-13252174D01*
X17177325Y-13252174D02*
X17186848Y-13271222D01*
X17186848Y-13271222D02*
X17186848Y-13375984D01*
X17282086Y-13375984D02*
X17282086Y-13242650D01*
X17282086Y-13261698D02*
X17291610Y-13252174D01*
X17291610Y-13252174D02*
X17310658Y-13242650D01*
X17310658Y-13242650D02*
X17339229Y-13242650D01*
X17339229Y-13242650D02*
X17358277Y-13252174D01*
X17358277Y-13252174D02*
X17367801Y-13271222D01*
X17367801Y-13271222D02*
X17367801Y-13375984D01*
X17367801Y-13271222D02*
X17377325Y-13252174D01*
X17377325Y-13252174D02*
X17396372Y-13242650D01*
X17396372Y-13242650D02*
X17424944Y-13242650D01*
X17424944Y-13242650D02*
X17443991Y-13252174D01*
X17443991Y-13252174D02*
X17453515Y-13271222D01*
X17453515Y-13271222D02*
X17453515Y-13375984D01*
X17843991Y-13166460D02*
X17672563Y-13423603D01*
X18101134Y-13175984D02*
X18120182Y-13175984D01*
X18120182Y-13175984D02*
X18139229Y-13185508D01*
X18139229Y-13185508D02*
X18148753Y-13195031D01*
X18148753Y-13195031D02*
X18158277Y-13214079D01*
X18158277Y-13214079D02*
X18167801Y-13252174D01*
X18167801Y-13252174D02*
X18167801Y-13299793D01*
X18167801Y-13299793D02*
X18158277Y-13337888D01*
X18158277Y-13337888D02*
X18148753Y-13356936D01*
X18148753Y-13356936D02*
X18139229Y-13366460D01*
X18139229Y-13366460D02*
X18120182Y-13375984D01*
X18120182Y-13375984D02*
X18101134Y-13375984D01*
X18101134Y-13375984D02*
X18082087Y-13366460D01*
X18082087Y-13366460D02*
X18072563Y-13356936D01*
X18072563Y-13356936D02*
X18063039Y-13337888D01*
X18063039Y-13337888D02*
X18053515Y-13299793D01*
X18053515Y-13299793D02*
X18053515Y-13252174D01*
X18053515Y-13252174D02*
X18063039Y-13214079D01*
X18063039Y-13214079D02*
X18072563Y-13195031D01*
X18072563Y-13195031D02*
X18082087Y-13185508D01*
X18082087Y-13185508D02*
X18101134Y-13175984D01*
X18253515Y-13356936D02*
X18263039Y-13366460D01*
X18263039Y-13366460D02*
X18253515Y-13375984D01*
X18253515Y-13375984D02*
X18243991Y-13366460D01*
X18243991Y-13366460D02*
X18253515Y-13356936D01*
X18253515Y-13356936D02*
X18253515Y-13375984D01*
X18386848Y-13175984D02*
X18405896Y-13175984D01*
X18405896Y-13175984D02*
X18424944Y-13185508D01*
X18424944Y-13185508D02*
X18434468Y-13195031D01*
X18434468Y-13195031D02*
X18443991Y-13214079D01*
X18443991Y-13214079D02*
X18453515Y-13252174D01*
X18453515Y-13252174D02*
X18453515Y-13299793D01*
X18453515Y-13299793D02*
X18443991Y-13337888D01*
X18443991Y-13337888D02*
X18434468Y-13356936D01*
X18434468Y-13356936D02*
X18424944Y-13366460D01*
X18424944Y-13366460D02*
X18405896Y-13375984D01*
X18405896Y-13375984D02*
X18386848Y-13375984D01*
X18386848Y-13375984D02*
X18367801Y-13366460D01*
X18367801Y-13366460D02*
X18358277Y-13356936D01*
X18358277Y-13356936D02*
X18348753Y-13337888D01*
X18348753Y-13337888D02*
X18339229Y-13299793D01*
X18339229Y-13299793D02*
X18339229Y-13252174D01*
X18339229Y-13252174D02*
X18348753Y-13214079D01*
X18348753Y-13214079D02*
X18358277Y-13195031D01*
X18358277Y-13195031D02*
X18367801Y-13185508D01*
X18367801Y-13185508D02*
X18386848Y-13175984D01*
X18624944Y-13242650D02*
X18624944Y-13375984D01*
X18577325Y-13166460D02*
X18529706Y-13309317D01*
X18529706Y-13309317D02*
X18653515Y-13309317D01*
X18710658Y-13175984D02*
X18834468Y-13175984D01*
X18834468Y-13175984D02*
X18767801Y-13252174D01*
X18767801Y-13252174D02*
X18796372Y-13252174D01*
X18796372Y-13252174D02*
X18815420Y-13261698D01*
X18815420Y-13261698D02*
X18824944Y-13271222D01*
X18824944Y-13271222D02*
X18834468Y-13290269D01*
X18834468Y-13290269D02*
X18834468Y-13337888D01*
X18834468Y-13337888D02*
X18824944Y-13356936D01*
X18824944Y-13356936D02*
X18815420Y-13366460D01*
X18815420Y-13366460D02*
X18796372Y-13375984D01*
X18796372Y-13375984D02*
X18739229Y-13375984D01*
X18739229Y-13375984D02*
X18720182Y-13366460D01*
X18720182Y-13366460D02*
X18710658Y-13356936D01*
X18901134Y-13175984D02*
X19024944Y-13175984D01*
X19024944Y-13175984D02*
X18958277Y-13252174D01*
X18958277Y-13252174D02*
X18986849Y-13252174D01*
X18986849Y-13252174D02*
X19005896Y-13261698D01*
X19005896Y-13261698D02*
X19015420Y-13271222D01*
X19015420Y-13271222D02*
X19024944Y-13290269D01*
X19024944Y-13290269D02*
X19024944Y-13337888D01*
X19024944Y-13337888D02*
X19015420Y-13356936D01*
X19015420Y-13356936D02*
X19005896Y-13366460D01*
X19005896Y-13366460D02*
X18986849Y-13375984D01*
X18986849Y-13375984D02*
X18929706Y-13375984D01*
X18929706Y-13375984D02*
X18910658Y-13366460D01*
X18910658Y-13366460D02*
X18901134Y-13356936D01*
X19101134Y-13175984D02*
X19101134Y-13214079D01*
X19177325Y-13175984D02*
X19177325Y-13214079D01*
X19472563Y-13452174D02*
X19463039Y-13442650D01*
X19463039Y-13442650D02*
X19443991Y-13414079D01*
X19443991Y-13414079D02*
X19434468Y-13395031D01*
X19434468Y-13395031D02*
X19424944Y-13366460D01*
X19424944Y-13366460D02*
X19415420Y-13318841D01*
X19415420Y-13318841D02*
X19415420Y-13280746D01*
X19415420Y-13280746D02*
X19424944Y-13233127D01*
X19424944Y-13233127D02*
X19434468Y-13204555D01*
X19434468Y-13204555D02*
X19443991Y-13185508D01*
X19443991Y-13185508D02*
X19463039Y-13156936D01*
X19463039Y-13156936D02*
X19472563Y-13147412D01*
X19529706Y-13175984D02*
X19653515Y-13175984D01*
X19653515Y-13175984D02*
X19586849Y-13252174D01*
X19586849Y-13252174D02*
X19615420Y-13252174D01*
X19615420Y-13252174D02*
X19634468Y-13261698D01*
X19634468Y-13261698D02*
X19643991Y-13271222D01*
X19643991Y-13271222D02*
X19653515Y-13290269D01*
X19653515Y-13290269D02*
X19653515Y-13337888D01*
X19653515Y-13337888D02*
X19643991Y-13356936D01*
X19643991Y-13356936D02*
X19634468Y-13366460D01*
X19634468Y-13366460D02*
X19615420Y-13375984D01*
X19615420Y-13375984D02*
X19558277Y-13375984D01*
X19558277Y-13375984D02*
X19539230Y-13366460D01*
X19539230Y-13366460D02*
X19529706Y-13356936D01*
X19891611Y-13375984D02*
X19891611Y-13175984D01*
X19977325Y-13375984D02*
X19977325Y-13271222D01*
X19977325Y-13271222D02*
X19967801Y-13252174D01*
X19967801Y-13252174D02*
X19948753Y-13242650D01*
X19948753Y-13242650D02*
X19920182Y-13242650D01*
X19920182Y-13242650D02*
X19901134Y-13252174D01*
X19901134Y-13252174D02*
X19891611Y-13261698D01*
X20101134Y-13375984D02*
X20082087Y-13366460D01*
X20082087Y-13366460D02*
X20072563Y-13356936D01*
X20072563Y-13356936D02*
X20063039Y-13337888D01*
X20063039Y-13337888D02*
X20063039Y-13280746D01*
X20063039Y-13280746D02*
X20072563Y-13261698D01*
X20072563Y-13261698D02*
X20082087Y-13252174D01*
X20082087Y-13252174D02*
X20101134Y-13242650D01*
X20101134Y-13242650D02*
X20129706Y-13242650D01*
X20129706Y-13242650D02*
X20148753Y-13252174D01*
X20148753Y-13252174D02*
X20158277Y-13261698D01*
X20158277Y-13261698D02*
X20167801Y-13280746D01*
X20167801Y-13280746D02*
X20167801Y-13337888D01*
X20167801Y-13337888D02*
X20158277Y-13356936D01*
X20158277Y-13356936D02*
X20148753Y-13366460D01*
X20148753Y-13366460D02*
X20129706Y-13375984D01*
X20129706Y-13375984D02*
X20101134Y-13375984D01*
X20282087Y-13375984D02*
X20263039Y-13366460D01*
X20263039Y-13366460D02*
X20253515Y-13347412D01*
X20253515Y-13347412D02*
X20253515Y-13175984D01*
X20434468Y-13366460D02*
X20415420Y-13375984D01*
X20415420Y-13375984D02*
X20377325Y-13375984D01*
X20377325Y-13375984D02*
X20358277Y-13366460D01*
X20358277Y-13366460D02*
X20348753Y-13347412D01*
X20348753Y-13347412D02*
X20348753Y-13271222D01*
X20348753Y-13271222D02*
X20358277Y-13252174D01*
X20358277Y-13252174D02*
X20377325Y-13242650D01*
X20377325Y-13242650D02*
X20415420Y-13242650D01*
X20415420Y-13242650D02*
X20434468Y-13252174D01*
X20434468Y-13252174D02*
X20443992Y-13271222D01*
X20443992Y-13271222D02*
X20443992Y-13290269D01*
X20443992Y-13290269D02*
X20348753Y-13309317D01*
X20520182Y-13366460D02*
X20539230Y-13375984D01*
X20539230Y-13375984D02*
X20577325Y-13375984D01*
X20577325Y-13375984D02*
X20596373Y-13366460D01*
X20596373Y-13366460D02*
X20605896Y-13347412D01*
X20605896Y-13347412D02*
X20605896Y-13337888D01*
X20605896Y-13337888D02*
X20596373Y-13318841D01*
X20596373Y-13318841D02*
X20577325Y-13309317D01*
X20577325Y-13309317D02*
X20548753Y-13309317D01*
X20548753Y-13309317D02*
X20529706Y-13299793D01*
X20529706Y-13299793D02*
X20520182Y-13280746D01*
X20520182Y-13280746D02*
X20520182Y-13271222D01*
X20520182Y-13271222D02*
X20529706Y-13252174D01*
X20529706Y-13252174D02*
X20548753Y-13242650D01*
X20548753Y-13242650D02*
X20577325Y-13242650D01*
X20577325Y-13242650D02*
X20596373Y-13252174D01*
X20672563Y-13452174D02*
X20682087Y-13442650D01*
X20682087Y-13442650D02*
X20701134Y-13414079D01*
X20701134Y-13414079D02*
X20710658Y-13395031D01*
X20710658Y-13395031D02*
X20720182Y-13366460D01*
X20720182Y-13366460D02*
X20729706Y-13318841D01*
X20729706Y-13318841D02*
X20729706Y-13280746D01*
X20729706Y-13280746D02*
X20720182Y-13233127D01*
X20720182Y-13233127D02*
X20710658Y-13204555D01*
X20710658Y-13204555D02*
X20701134Y-13185508D01*
X20701134Y-13185508D02*
X20682087Y-13156936D01*
X20682087Y-13156936D02*
X20672563Y-13147412D01*
D14*
X15832500Y-13613500D02*
X15897500Y-13548500D01*
X15832500Y-13483500D01*
X15767500Y-13548500D01*
X15832500Y-13613500D01*
D11*
X16263039Y-13639984D02*
X16148753Y-13639984D01*
X16205896Y-13639984D02*
X16205896Y-13439984D01*
X16205896Y-13439984D02*
X16186848Y-13468555D01*
X16186848Y-13468555D02*
X16167801Y-13487603D01*
X16167801Y-13487603D02*
X16148753Y-13497127D01*
X16348753Y-13620936D02*
X16358277Y-13630460D01*
X16358277Y-13630460D02*
X16348753Y-13639984D01*
X16348753Y-13639984D02*
X16339229Y-13630460D01*
X16339229Y-13630460D02*
X16348753Y-13620936D01*
X16348753Y-13620936D02*
X16348753Y-13639984D01*
X16424943Y-13439984D02*
X16548753Y-13439984D01*
X16548753Y-13439984D02*
X16482086Y-13516174D01*
X16482086Y-13516174D02*
X16510658Y-13516174D01*
X16510658Y-13516174D02*
X16529705Y-13525698D01*
X16529705Y-13525698D02*
X16539229Y-13535222D01*
X16539229Y-13535222D02*
X16548753Y-13554269D01*
X16548753Y-13554269D02*
X16548753Y-13601888D01*
X16548753Y-13601888D02*
X16539229Y-13620936D01*
X16539229Y-13620936D02*
X16529705Y-13630460D01*
X16529705Y-13630460D02*
X16510658Y-13639984D01*
X16510658Y-13639984D02*
X16453515Y-13639984D01*
X16453515Y-13639984D02*
X16434467Y-13630460D01*
X16434467Y-13630460D02*
X16424943Y-13620936D01*
X16672562Y-13439984D02*
X16691610Y-13439984D01*
X16691610Y-13439984D02*
X16710658Y-13449508D01*
X16710658Y-13449508D02*
X16720182Y-13459031D01*
X16720182Y-13459031D02*
X16729705Y-13478079D01*
X16729705Y-13478079D02*
X16739229Y-13516174D01*
X16739229Y-13516174D02*
X16739229Y-13563793D01*
X16739229Y-13563793D02*
X16729705Y-13601888D01*
X16729705Y-13601888D02*
X16720182Y-13620936D01*
X16720182Y-13620936D02*
X16710658Y-13630460D01*
X16710658Y-13630460D02*
X16691610Y-13639984D01*
X16691610Y-13639984D02*
X16672562Y-13639984D01*
X16672562Y-13639984D02*
X16653515Y-13630460D01*
X16653515Y-13630460D02*
X16643991Y-13620936D01*
X16643991Y-13620936D02*
X16634467Y-13601888D01*
X16634467Y-13601888D02*
X16624943Y-13563793D01*
X16624943Y-13563793D02*
X16624943Y-13516174D01*
X16624943Y-13516174D02*
X16634467Y-13478079D01*
X16634467Y-13478079D02*
X16643991Y-13459031D01*
X16643991Y-13459031D02*
X16653515Y-13449508D01*
X16653515Y-13449508D02*
X16672562Y-13439984D01*
X16863039Y-13439984D02*
X16882086Y-13439984D01*
X16882086Y-13439984D02*
X16901134Y-13449508D01*
X16901134Y-13449508D02*
X16910658Y-13459031D01*
X16910658Y-13459031D02*
X16920182Y-13478079D01*
X16920182Y-13478079D02*
X16929705Y-13516174D01*
X16929705Y-13516174D02*
X16929705Y-13563793D01*
X16929705Y-13563793D02*
X16920182Y-13601888D01*
X16920182Y-13601888D02*
X16910658Y-13620936D01*
X16910658Y-13620936D02*
X16901134Y-13630460D01*
X16901134Y-13630460D02*
X16882086Y-13639984D01*
X16882086Y-13639984D02*
X16863039Y-13639984D01*
X16863039Y-13639984D02*
X16843991Y-13630460D01*
X16843991Y-13630460D02*
X16834467Y-13620936D01*
X16834467Y-13620936D02*
X16824944Y-13601888D01*
X16824944Y-13601888D02*
X16815420Y-13563793D01*
X16815420Y-13563793D02*
X16815420Y-13516174D01*
X16815420Y-13516174D02*
X16824944Y-13478079D01*
X16824944Y-13478079D02*
X16834467Y-13459031D01*
X16834467Y-13459031D02*
X16843991Y-13449508D01*
X16843991Y-13449508D02*
X16863039Y-13439984D01*
X17015420Y-13639984D02*
X17015420Y-13506650D01*
X17015420Y-13525698D02*
X17024944Y-13516174D01*
X17024944Y-13516174D02*
X17043991Y-13506650D01*
X17043991Y-13506650D02*
X17072563Y-13506650D01*
X17072563Y-13506650D02*
X17091610Y-13516174D01*
X17091610Y-13516174D02*
X17101134Y-13535222D01*
X17101134Y-13535222D02*
X17101134Y-13639984D01*
X17101134Y-13535222D02*
X17110658Y-13516174D01*
X17110658Y-13516174D02*
X17129705Y-13506650D01*
X17129705Y-13506650D02*
X17158277Y-13506650D01*
X17158277Y-13506650D02*
X17177325Y-13516174D01*
X17177325Y-13516174D02*
X17186848Y-13535222D01*
X17186848Y-13535222D02*
X17186848Y-13639984D01*
X17282086Y-13639984D02*
X17282086Y-13506650D01*
X17282086Y-13525698D02*
X17291610Y-13516174D01*
X17291610Y-13516174D02*
X17310658Y-13506650D01*
X17310658Y-13506650D02*
X17339229Y-13506650D01*
X17339229Y-13506650D02*
X17358277Y-13516174D01*
X17358277Y-13516174D02*
X17367801Y-13535222D01*
X17367801Y-13535222D02*
X17367801Y-13639984D01*
X17367801Y-13535222D02*
X17377325Y-13516174D01*
X17377325Y-13516174D02*
X17396372Y-13506650D01*
X17396372Y-13506650D02*
X17424944Y-13506650D01*
X17424944Y-13506650D02*
X17443991Y-13516174D01*
X17443991Y-13516174D02*
X17453515Y-13535222D01*
X17453515Y-13535222D02*
X17453515Y-13639984D01*
X17843991Y-13430460D02*
X17672563Y-13687603D01*
X18101134Y-13439984D02*
X18120182Y-13439984D01*
X18120182Y-13439984D02*
X18139229Y-13449508D01*
X18139229Y-13449508D02*
X18148753Y-13459031D01*
X18148753Y-13459031D02*
X18158277Y-13478079D01*
X18158277Y-13478079D02*
X18167801Y-13516174D01*
X18167801Y-13516174D02*
X18167801Y-13563793D01*
X18167801Y-13563793D02*
X18158277Y-13601888D01*
X18158277Y-13601888D02*
X18148753Y-13620936D01*
X18148753Y-13620936D02*
X18139229Y-13630460D01*
X18139229Y-13630460D02*
X18120182Y-13639984D01*
X18120182Y-13639984D02*
X18101134Y-13639984D01*
X18101134Y-13639984D02*
X18082087Y-13630460D01*
X18082087Y-13630460D02*
X18072563Y-13620936D01*
X18072563Y-13620936D02*
X18063039Y-13601888D01*
X18063039Y-13601888D02*
X18053515Y-13563793D01*
X18053515Y-13563793D02*
X18053515Y-13516174D01*
X18053515Y-13516174D02*
X18063039Y-13478079D01*
X18063039Y-13478079D02*
X18072563Y-13459031D01*
X18072563Y-13459031D02*
X18082087Y-13449508D01*
X18082087Y-13449508D02*
X18101134Y-13439984D01*
X18253515Y-13620936D02*
X18263039Y-13630460D01*
X18263039Y-13630460D02*
X18253515Y-13639984D01*
X18253515Y-13639984D02*
X18243991Y-13630460D01*
X18243991Y-13630460D02*
X18253515Y-13620936D01*
X18253515Y-13620936D02*
X18253515Y-13639984D01*
X18386848Y-13439984D02*
X18405896Y-13439984D01*
X18405896Y-13439984D02*
X18424944Y-13449508D01*
X18424944Y-13449508D02*
X18434468Y-13459031D01*
X18434468Y-13459031D02*
X18443991Y-13478079D01*
X18443991Y-13478079D02*
X18453515Y-13516174D01*
X18453515Y-13516174D02*
X18453515Y-13563793D01*
X18453515Y-13563793D02*
X18443991Y-13601888D01*
X18443991Y-13601888D02*
X18434468Y-13620936D01*
X18434468Y-13620936D02*
X18424944Y-13630460D01*
X18424944Y-13630460D02*
X18405896Y-13639984D01*
X18405896Y-13639984D02*
X18386848Y-13639984D01*
X18386848Y-13639984D02*
X18367801Y-13630460D01*
X18367801Y-13630460D02*
X18358277Y-13620936D01*
X18358277Y-13620936D02*
X18348753Y-13601888D01*
X18348753Y-13601888D02*
X18339229Y-13563793D01*
X18339229Y-13563793D02*
X18339229Y-13516174D01*
X18339229Y-13516174D02*
X18348753Y-13478079D01*
X18348753Y-13478079D02*
X18358277Y-13459031D01*
X18358277Y-13459031D02*
X18367801Y-13449508D01*
X18367801Y-13449508D02*
X18386848Y-13439984D01*
X18634468Y-13439984D02*
X18539229Y-13439984D01*
X18539229Y-13439984D02*
X18529706Y-13535222D01*
X18529706Y-13535222D02*
X18539229Y-13525698D01*
X18539229Y-13525698D02*
X18558277Y-13516174D01*
X18558277Y-13516174D02*
X18605896Y-13516174D01*
X18605896Y-13516174D02*
X18624944Y-13525698D01*
X18624944Y-13525698D02*
X18634468Y-13535222D01*
X18634468Y-13535222D02*
X18643991Y-13554269D01*
X18643991Y-13554269D02*
X18643991Y-13601888D01*
X18643991Y-13601888D02*
X18634468Y-13620936D01*
X18634468Y-13620936D02*
X18624944Y-13630460D01*
X18624944Y-13630460D02*
X18605896Y-13639984D01*
X18605896Y-13639984D02*
X18558277Y-13639984D01*
X18558277Y-13639984D02*
X18539229Y-13630460D01*
X18539229Y-13630460D02*
X18529706Y-13620936D01*
X18834468Y-13639984D02*
X18720182Y-13639984D01*
X18777325Y-13639984D02*
X18777325Y-13439984D01*
X18777325Y-13439984D02*
X18758277Y-13468555D01*
X18758277Y-13468555D02*
X18739229Y-13487603D01*
X18739229Y-13487603D02*
X18720182Y-13497127D01*
X18910658Y-13459031D02*
X18920182Y-13449508D01*
X18920182Y-13449508D02*
X18939229Y-13439984D01*
X18939229Y-13439984D02*
X18986849Y-13439984D01*
X18986849Y-13439984D02*
X19005896Y-13449508D01*
X19005896Y-13449508D02*
X19015420Y-13459031D01*
X19015420Y-13459031D02*
X19024944Y-13478079D01*
X19024944Y-13478079D02*
X19024944Y-13497127D01*
X19024944Y-13497127D02*
X19015420Y-13525698D01*
X19015420Y-13525698D02*
X18901134Y-13639984D01*
X18901134Y-13639984D02*
X19024944Y-13639984D01*
X19101134Y-13439984D02*
X19101134Y-13478079D01*
X19177325Y-13439984D02*
X19177325Y-13478079D01*
X19472563Y-13716174D02*
X19463039Y-13706650D01*
X19463039Y-13706650D02*
X19443991Y-13678079D01*
X19443991Y-13678079D02*
X19434468Y-13659031D01*
X19434468Y-13659031D02*
X19424944Y-13630460D01*
X19424944Y-13630460D02*
X19415420Y-13582841D01*
X19415420Y-13582841D02*
X19415420Y-13544746D01*
X19415420Y-13544746D02*
X19424944Y-13497127D01*
X19424944Y-13497127D02*
X19434468Y-13468555D01*
X19434468Y-13468555D02*
X19443991Y-13449508D01*
X19443991Y-13449508D02*
X19463039Y-13420936D01*
X19463039Y-13420936D02*
X19472563Y-13411412D01*
X19539230Y-13459031D02*
X19548753Y-13449508D01*
X19548753Y-13449508D02*
X19567801Y-13439984D01*
X19567801Y-13439984D02*
X19615420Y-13439984D01*
X19615420Y-13439984D02*
X19634468Y-13449508D01*
X19634468Y-13449508D02*
X19643991Y-13459031D01*
X19643991Y-13459031D02*
X19653515Y-13478079D01*
X19653515Y-13478079D02*
X19653515Y-13497127D01*
X19653515Y-13497127D02*
X19643991Y-13525698D01*
X19643991Y-13525698D02*
X19529706Y-13639984D01*
X19529706Y-13639984D02*
X19653515Y-13639984D01*
X19891611Y-13639984D02*
X19891611Y-13439984D01*
X19977325Y-13639984D02*
X19977325Y-13535222D01*
X19977325Y-13535222D02*
X19967801Y-13516174D01*
X19967801Y-13516174D02*
X19948753Y-13506650D01*
X19948753Y-13506650D02*
X19920182Y-13506650D01*
X19920182Y-13506650D02*
X19901134Y-13516174D01*
X19901134Y-13516174D02*
X19891611Y-13525698D01*
X20101134Y-13639984D02*
X20082087Y-13630460D01*
X20082087Y-13630460D02*
X20072563Y-13620936D01*
X20072563Y-13620936D02*
X20063039Y-13601888D01*
X20063039Y-13601888D02*
X20063039Y-13544746D01*
X20063039Y-13544746D02*
X20072563Y-13525698D01*
X20072563Y-13525698D02*
X20082087Y-13516174D01*
X20082087Y-13516174D02*
X20101134Y-13506650D01*
X20101134Y-13506650D02*
X20129706Y-13506650D01*
X20129706Y-13506650D02*
X20148753Y-13516174D01*
X20148753Y-13516174D02*
X20158277Y-13525698D01*
X20158277Y-13525698D02*
X20167801Y-13544746D01*
X20167801Y-13544746D02*
X20167801Y-13601888D01*
X20167801Y-13601888D02*
X20158277Y-13620936D01*
X20158277Y-13620936D02*
X20148753Y-13630460D01*
X20148753Y-13630460D02*
X20129706Y-13639984D01*
X20129706Y-13639984D02*
X20101134Y-13639984D01*
X20282087Y-13639984D02*
X20263039Y-13630460D01*
X20263039Y-13630460D02*
X20253515Y-13611412D01*
X20253515Y-13611412D02*
X20253515Y-13439984D01*
X20434468Y-13630460D02*
X20415420Y-13639984D01*
X20415420Y-13639984D02*
X20377325Y-13639984D01*
X20377325Y-13639984D02*
X20358277Y-13630460D01*
X20358277Y-13630460D02*
X20348753Y-13611412D01*
X20348753Y-13611412D02*
X20348753Y-13535222D01*
X20348753Y-13535222D02*
X20358277Y-13516174D01*
X20358277Y-13516174D02*
X20377325Y-13506650D01*
X20377325Y-13506650D02*
X20415420Y-13506650D01*
X20415420Y-13506650D02*
X20434468Y-13516174D01*
X20434468Y-13516174D02*
X20443992Y-13535222D01*
X20443992Y-13535222D02*
X20443992Y-13554269D01*
X20443992Y-13554269D02*
X20348753Y-13573317D01*
X20520182Y-13630460D02*
X20539230Y-13639984D01*
X20539230Y-13639984D02*
X20577325Y-13639984D01*
X20577325Y-13639984D02*
X20596373Y-13630460D01*
X20596373Y-13630460D02*
X20605896Y-13611412D01*
X20605896Y-13611412D02*
X20605896Y-13601888D01*
X20605896Y-13601888D02*
X20596373Y-13582841D01*
X20596373Y-13582841D02*
X20577325Y-13573317D01*
X20577325Y-13573317D02*
X20548753Y-13573317D01*
X20548753Y-13573317D02*
X20529706Y-13563793D01*
X20529706Y-13563793D02*
X20520182Y-13544746D01*
X20520182Y-13544746D02*
X20520182Y-13535222D01*
X20520182Y-13535222D02*
X20529706Y-13516174D01*
X20529706Y-13516174D02*
X20548753Y-13506650D01*
X20548753Y-13506650D02*
X20577325Y-13506650D01*
X20577325Y-13506650D02*
X20596373Y-13516174D01*
X20672563Y-13716174D02*
X20682087Y-13706650D01*
X20682087Y-13706650D02*
X20701134Y-13678079D01*
X20701134Y-13678079D02*
X20710658Y-13659031D01*
X20710658Y-13659031D02*
X20720182Y-13630460D01*
X20720182Y-13630460D02*
X20729706Y-13582841D01*
X20729706Y-13582841D02*
X20729706Y-13544746D01*
X20729706Y-13544746D02*
X20720182Y-13497127D01*
X20720182Y-13497127D02*
X20710658Y-13468555D01*
X20710658Y-13468555D02*
X20701134Y-13449508D01*
X20701134Y-13449508D02*
X20682087Y-13420936D01*
X20682087Y-13420936D02*
X20672563Y-13411412D01*
M02*
