%TF.GenerationSoftware,KiCad,Pcbnew,9.0.6*%
%TF.CreationDate,2025-11-06T07:23:16-05:00*%
%TF.ProjectId,pic-rylr998-01,7069632d-7279-46c7-9239-39382d30312e,rev?*%
%TF.SameCoordinates,Original*%
%TF.FileFunction,Copper,L2,Bot*%
%TF.FilePolarity,Positive*%
%FSLAX46Y46*%
G04 Gerber Fmt 4.6, Leading zero omitted, Abs format (unit mm)*
G04 Created by KiCad (PCBNEW 9.0.6) date 2025-11-06 07:23:16*
%MOMM*%
%LPD*%
G01*
G04 APERTURE LIST*
G04 Aperture macros list*
%AMRoundRect*
0 Rectangle with rounded corners*
0 $1 Rounding radius*
0 $2 $3 $4 $5 $6 $7 $8 $9 X,Y pos of 4 corners*
0 Add a 4 corners polygon primitive as box body*
4,1,4,$2,$3,$4,$5,$6,$7,$8,$9,$2,$3,0*
0 Add four circle primitives for the rounded corners*
1,1,$1+$1,$2,$3*
1,1,$1+$1,$4,$5*
1,1,$1+$1,$6,$7*
1,1,$1+$1,$8,$9*
0 Add four rect primitives between the rounded corners*
20,1,$1+$1,$2,$3,$4,$5,0*
20,1,$1+$1,$4,$5,$6,$7,0*
20,1,$1+$1,$6,$7,$8,$9,0*
20,1,$1+$1,$8,$9,$2,$3,0*%
G04 Aperture macros list end*
%TA.AperFunction,ComponentPad*%
%ADD10R,1.800000X1.800000*%
%TD*%
%TA.AperFunction,ComponentPad*%
%ADD11C,1.800000*%
%TD*%
%TA.AperFunction,ComponentPad*%
%ADD12C,1.600000*%
%TD*%
%TA.AperFunction,ComponentPad*%
%ADD13R,1.905000X2.000000*%
%TD*%
%TA.AperFunction,ComponentPad*%
%ADD14O,1.905000X2.000000*%
%TD*%
%TA.AperFunction,ComponentPad*%
%ADD15RoundRect,0.250000X-0.550000X-0.550000X0.550000X-0.550000X0.550000X0.550000X-0.550000X0.550000X0*%
%TD*%
%TA.AperFunction,ComponentPad*%
%ADD16RoundRect,0.250000X1.050000X1.050000X-1.050000X1.050000X-1.050000X-1.050000X1.050000X-1.050000X0*%
%TD*%
%TA.AperFunction,ComponentPad*%
%ADD17C,2.600000*%
%TD*%
%TA.AperFunction,ComponentPad*%
%ADD18C,2.000000*%
%TD*%
%TA.AperFunction,ComponentPad*%
%ADD19R,1.700000X1.700000*%
%TD*%
%TA.AperFunction,ComponentPad*%
%ADD20C,1.700000*%
%TD*%
%TA.AperFunction,ComponentPad*%
%ADD21RoundRect,0.250000X0.550000X0.550000X-0.550000X0.550000X-0.550000X-0.550000X0.550000X-0.550000X0*%
%TD*%
%TA.AperFunction,Conductor*%
%ADD22C,1.000000*%
%TD*%
%TA.AperFunction,Conductor*%
%ADD23C,0.200000*%
%TD*%
G04 APERTURE END LIST*
D10*
%TO.P,D1,1,K*%
%TO.N,Net-(D1-K)*%
X183000000Y-105225000D03*
D11*
%TO.P,D1,2,A*%
%TO.N,Net-(D1-A)*%
X183000000Y-107765000D03*
%TD*%
D12*
%TO.P,R5,1*%
%TO.N,Net-(U1-VO)*%
X172960000Y-93500000D03*
%TO.P,R5,2*%
%TO.N,Net-(J1-Pin_1)*%
X175500000Y-93500000D03*
%TD*%
D13*
%TO.P,U1,1,GND*%
%TO.N,Net-(D1-K)*%
X171420000Y-86500000D03*
D14*
%TO.P,U1,2,VO*%
%TO.N,Net-(U1-VO)*%
X173960000Y-86500000D03*
%TO.P,U1,3,VI*%
%TO.N,Net-(U1-VI)*%
X176500000Y-86500000D03*
%TD*%
D15*
%TO.P,J1,1,Pin_1*%
%TO.N,Net-(J1-Pin_1)*%
X170190000Y-104190000D03*
D12*
%TO.P,J1,2,Pin_2*%
%TO.N,Net-(J1-Pin_2)*%
X170190000Y-106730000D03*
%TO.P,J1,3,Pin_3*%
%TO.N,Net-(J1-Pin_3)*%
X170190000Y-109270000D03*
%TO.P,J1,4,Pin_4*%
%TO.N,Net-(J1-Pin_4)*%
X170190000Y-111810000D03*
%TO.P,J1,5,Pin_5*%
%TO.N,Net-(J1-Pin_5)*%
X177810000Y-111810000D03*
%TO.P,J1,6,Pin_6*%
%TO.N,unconnected-(J1-Pin_6-Pad6)*%
X177810000Y-109270000D03*
%TO.P,J1,7,Pin_7*%
%TO.N,unconnected-(J1-Pin_7-Pad7)*%
X177810000Y-106730000D03*
%TO.P,J1,8,Pin_8*%
%TO.N,Net-(D1-K)*%
X177810000Y-104190000D03*
%TD*%
%TO.P,R4,1*%
%TO.N,Net-(U1-VO)*%
X163960000Y-93500000D03*
%TO.P,R4,2*%
%TO.N,Net-(J2-Pin_5)*%
X166500000Y-93500000D03*
%TD*%
%TO.P,R3,1*%
%TO.N,Net-(J1-Pin_5)*%
X181000000Y-114540000D03*
%TO.P,R3,2*%
%TO.N,Net-(D1-A)*%
X181000000Y-112000000D03*
%TD*%
D16*
%TO.P,J3,1,Pin_1*%
%TO.N,Net-(J3-Pin_1)*%
X176500000Y-77500000D03*
D17*
%TO.P,J3,2,Pin_2*%
%TO.N,Net-(D1-K)*%
X171500000Y-77500000D03*
%TD*%
D18*
%TO.P,C2,1*%
%TO.N,Net-(J1-Pin_1)*%
X171500000Y-99500000D03*
%TO.P,C2,2*%
%TO.N,Net-(D1-K)*%
X176500000Y-99500000D03*
%TD*%
D19*
%TO.P,J2,1,Pin_1*%
%TO.N,Net-(D1-K)*%
X162500000Y-115120000D03*
D20*
%TO.P,J2,2,Pin_2*%
%TO.N,Net-(J1-Pin_3)*%
X162500000Y-112580000D03*
%TO.P,J2,3,Pin_3*%
%TO.N,Net-(J1-Pin_2)*%
X162500000Y-110040000D03*
%TO.P,J2,4,Pin_4*%
%TO.N,unconnected-(J2-Pin_4-Pad4)*%
X162500000Y-107500000D03*
%TO.P,J2,5,Pin_5*%
%TO.N,Net-(J2-Pin_5)*%
X162500000Y-104960000D03*
%TD*%
D12*
%TO.P,R2,1*%
%TO.N,Net-(C1-Pad1)*%
X167000000Y-114545000D03*
%TO.P,R2,2*%
%TO.N,Net-(J1-Pin_4)*%
X167000000Y-112005000D03*
%TD*%
%TO.P,R1,1*%
%TO.N,Net-(J1-Pin_1)*%
X172500000Y-103920000D03*
%TO.P,R1,2*%
%TO.N,Net-(C1-Pad1)*%
X172500000Y-114080000D03*
%TD*%
D21*
%TO.P,C5,1*%
%TO.N,Net-(U1-VO)*%
X165682380Y-86500000D03*
D12*
%TO.P,C5,2*%
%TO.N,Net-(D1-K)*%
X163182380Y-86500000D03*
%TD*%
%TO.P,R6,1*%
%TO.N,Net-(J3-Pin_1)*%
X182500000Y-77455000D03*
%TO.P,R6,2*%
%TO.N,Net-(U1-VI)*%
X182500000Y-79995000D03*
%TD*%
D15*
%TO.P,C4,1*%
%TO.N,Net-(U1-VI)*%
X182500000Y-86500000D03*
D12*
%TO.P,C4,2*%
%TO.N,Net-(D1-K)*%
X185000000Y-86500000D03*
%TD*%
D18*
%TO.P,C3,1*%
%TO.N,Net-(J2-Pin_5)*%
X167500000Y-99500000D03*
%TO.P,C3,2*%
%TO.N,Net-(D1-K)*%
X162500000Y-99500000D03*
%TD*%
%TO.P,C1,1*%
%TO.N,Net-(C1-Pad1)*%
X175000000Y-110500000D03*
%TO.P,C1,2*%
%TO.N,Net-(D1-K)*%
X175000000Y-105500000D03*
%TD*%
D22*
%TO.N,Net-(D1-K)*%
X171420000Y-83500000D02*
X171420000Y-86500000D01*
X183000000Y-105225000D02*
X183000000Y-105000000D01*
X176500000Y-99500000D02*
X177810000Y-100810000D01*
X183225000Y-105000000D02*
X183000000Y-105225000D01*
X163182380Y-84317620D02*
X164000000Y-83500000D01*
X175000000Y-105000000D02*
X175000000Y-105500000D01*
X160101000Y-101899000D02*
X160101000Y-114601000D01*
X160101000Y-114601000D02*
X160620000Y-115120000D01*
X162500000Y-99500000D02*
X160101000Y-101899000D01*
X177810000Y-104190000D02*
X176310000Y-104190000D01*
X181500000Y-117500000D02*
X183500000Y-115500000D01*
X163182380Y-86500000D02*
X163182380Y-84317620D01*
X185000000Y-105000000D02*
X183225000Y-105000000D01*
X183000000Y-105225000D02*
X181775000Y-104000000D01*
X171420000Y-78080000D02*
X171420000Y-83500000D01*
X171500000Y-77500000D02*
X171500000Y-78000000D01*
X176310000Y-104190000D02*
X175000000Y-105500000D01*
X183500000Y-113000000D02*
X186500000Y-110000000D01*
X181775000Y-104000000D02*
X178000000Y-104000000D01*
X186500000Y-105500000D02*
X186000000Y-105000000D01*
X162500000Y-116000000D02*
X164000000Y-117500000D01*
X163182380Y-86500000D02*
X163182380Y-86817620D01*
X185000000Y-86500000D02*
X185000000Y-105000000D01*
X161500000Y-98500000D02*
X162500000Y-99500000D01*
X162500000Y-115120000D02*
X162500000Y-116000000D01*
X163182380Y-86817620D02*
X161500000Y-88500000D01*
X171500000Y-78000000D02*
X171420000Y-78080000D01*
X161500000Y-88500000D02*
X161500000Y-98500000D01*
X177810000Y-100810000D02*
X177810000Y-104190000D01*
X183500000Y-115500000D02*
X183500000Y-113000000D01*
X160620000Y-115120000D02*
X162500000Y-115120000D01*
X178000000Y-104000000D02*
X177810000Y-104190000D01*
X164000000Y-117500000D02*
X181500000Y-117500000D01*
X164000000Y-83500000D02*
X171420000Y-83500000D01*
X186500000Y-110000000D02*
X186500000Y-105500000D01*
X186000000Y-105000000D02*
X185000000Y-105000000D01*
%TO.N,Net-(C1-Pad1)*%
X172035000Y-114545000D02*
X172500000Y-114080000D01*
X167000000Y-114545000D02*
X172035000Y-114545000D01*
X175000000Y-113000000D02*
X175000000Y-110500000D01*
X173920000Y-114080000D02*
X175000000Y-113000000D01*
X172500000Y-114080000D02*
X173920000Y-114080000D01*
%TO.N,Net-(J1-Pin_1)*%
X171810000Y-104190000D02*
X170190000Y-104190000D01*
X172500000Y-103920000D02*
X172080000Y-103920000D01*
X172500000Y-100500000D02*
X172500000Y-103920000D01*
X175500000Y-93500000D02*
X175500000Y-95500000D01*
X173000000Y-96500000D02*
X171500000Y-98000000D01*
X174500000Y-96500000D02*
X173000000Y-96500000D01*
X171500000Y-98000000D02*
X171500000Y-99500000D01*
X172080000Y-103920000D02*
X171810000Y-104190000D01*
X171500000Y-99500000D02*
X172500000Y-100500000D01*
X175500000Y-95500000D02*
X174500000Y-96500000D01*
%TO.N,Net-(J2-Pin_5)*%
X164460000Y-104960000D02*
X162500000Y-104960000D01*
X164500000Y-105000000D02*
X164460000Y-104960000D01*
X167500000Y-102000000D02*
X164500000Y-105000000D01*
X167500000Y-94500000D02*
X167500000Y-99500000D01*
X167500000Y-99500000D02*
X167500000Y-102000000D01*
X166500000Y-93500000D02*
X167500000Y-94500000D01*
%TO.N,Net-(U1-VI)*%
X182500000Y-86500000D02*
X176500000Y-86500000D01*
X182500000Y-79995000D02*
X182500000Y-86500000D01*
%TO.N,Net-(U1-VO)*%
X172960000Y-92040000D02*
X172960000Y-93500000D01*
X165682380Y-86500000D02*
X165682380Y-90357620D01*
X173960000Y-89540000D02*
X172960000Y-90540000D01*
X164460000Y-90540000D02*
X165500000Y-90540000D01*
X163960000Y-91040000D02*
X163960000Y-93500000D01*
X172960000Y-90540000D02*
X172960000Y-93500000D01*
X165682380Y-90357620D02*
X165500000Y-90540000D01*
X173960000Y-86500000D02*
X173960000Y-89540000D01*
X163960000Y-91040000D02*
X164460000Y-90540000D01*
X165500000Y-90540000D02*
X172960000Y-90540000D01*
X173000000Y-92000000D02*
X172960000Y-92040000D01*
D23*
%TO.N,Net-(D1-A)*%
X181000000Y-109765000D02*
X183000000Y-107765000D01*
X181000000Y-112000000D02*
X181000000Y-109765000D01*
%TO.N,Net-(J1-Pin_3)*%
X170190000Y-109270000D02*
X166230000Y-109270000D01*
X164500000Y-111000000D02*
X164500000Y-112000000D01*
X164500000Y-112000000D02*
X163920000Y-112580000D01*
X163920000Y-112580000D02*
X162500000Y-112580000D01*
X166230000Y-109270000D02*
X164500000Y-111000000D01*
%TO.N,Net-(J1-Pin_2)*%
X163960000Y-110040000D02*
X162500000Y-110040000D01*
X167270000Y-106730000D02*
X163960000Y-110040000D01*
X170190000Y-106730000D02*
X167270000Y-106730000D01*
D22*
%TO.N,Net-(J1-Pin_4)*%
X169995000Y-112005000D02*
X170190000Y-111810000D01*
X167000000Y-112005000D02*
X169995000Y-112005000D01*
D23*
%TO.N,Net-(J1-Pin_5)*%
X181000000Y-114540000D02*
X179040000Y-114540000D01*
X179040000Y-114540000D02*
X177810000Y-113310000D01*
X177810000Y-113310000D02*
X177810000Y-111810000D01*
%TO.N,Net-(J3-Pin_1)*%
X182455000Y-77500000D02*
X182500000Y-77455000D01*
D22*
X176500000Y-77500000D02*
X182455000Y-77500000D01*
%TD*%
M02*
