M48
; DRILL file {KiCad 9.0.6} date 2025-11-06T07:25:22-0500
; FORMAT={-:-/ absolute / metric / decimal}
; #@! TF.CreationDate,2025-11-06T07:25:22-05:00
; #@! TF.GenerationSoftware,Kicad,Pcbnew,9.0.6
; #@! TF.FileFunction,Plated,1,2,PTH
FMAT,2
METRIC
; #@! TA.AperFunction,Plated,PTH,ComponentDrill
T1C0.800
; #@! TA.AperFunction,Plated,PTH,ComponentDrill
T2C0.900
; #@! TA.AperFunction,Plated,PTH,ComponentDrill
T3C1.000
; #@! TA.AperFunction,Plated,PTH,ComponentDrill
T4C1.100
; #@! TA.AperFunction,Plated,PTH,ComponentDrill
T5C1.300
%
G90
G05
T1
X163.182Y-86.5
X163.96Y-93.5
X165.682Y-86.5
X166.5Y-93.5
X167.0Y-112.005
X167.0Y-114.545
X170.19Y-104.19
X170.19Y-106.73
X170.19Y-109.27
X170.19Y-111.81
X172.5Y-103.92
X172.5Y-114.08
X172.96Y-93.5
X175.5Y-93.5
X177.81Y-104.19
X177.81Y-106.73
X177.81Y-109.27
X177.81Y-111.81
X181.0Y-112.0
X181.0Y-114.54
X182.5Y-77.455
X182.5Y-79.995
X182.5Y-86.5
X185.0Y-86.5
T2
X183.0Y-105.225
X183.0Y-107.765
T3
X162.5Y-99.5
X162.5Y-104.96
X162.5Y-107.5
X162.5Y-110.04
X162.5Y-112.58
X162.5Y-115.12
X167.5Y-99.5
X171.5Y-99.5
X175.0Y-105.5
X175.0Y-110.5
X176.5Y-99.5
T4
X171.42Y-86.5
X173.96Y-86.5
X176.5Y-86.5
T5
X171.5Y-77.5
X176.5Y-77.5
M30
